<?xml version="1.0" standalone="no"?>
<!DOCTYPE svg PUBLIC "-//W3C//DTD SVG 20010904//EN"
 "http://www.w3.org/TR/2001/REC-SVG-20010904/DTD/svg10.dtd">
<svg version="1.0" xmlns="http://www.w3.org/2000/svg"
 width="300.000000pt" height="297.000000pt" viewBox="0 0 300.000000 297.000000"
 preserveAspectRatio="xMidYMid meet">
<metadata>
Created by potrace 1.10, written by Peter Selinger 2001-2011
</metadata>
<g transform="translate(0.000000,297.000000) scale(0.100000,-0.100000)"
fill="#000000" stroke="none">
<path d="M1075 2163 c6 -6 190 -139 411 -296 l401 -286 391 -3 c216 -2 392 -1
392 2 -1 12 -120 68 -125 60 -4 -6 -47 -10 -97 -10 l-91 0 -189 106 c-103 59
-188 110 -188 115 0 5 10 9 23 9 12 0 94 7 182 15 88 8 168 15 177 15 9 0 44
25 77 56 59 54 77 82 46 71 -8 -4 -149 -24 -313 -47 l-300 -41 -383 114 c-211
63 -393 118 -404 122 -13 5 -17 5 -10 -2z m535 -199 c234 -70 259 -76 313 -69
l59 6 -18 -30 c-18 -30 -18 -31 9 -59 15 -15 85 -61 157 -101 71 -40 130 -77
130 -82 0 -5 -77 -9 -179 -9 l-179 0 -280 200 c-155 110 -283 204 -287 210
-11 18 15 12 275 -66z m745 -23 c-12 -11 -105 -19 -105 -9 0 4 15 9 33 11 63
8 81 7 72 -2z"/>
<path d="M990 2084 c-76 -61 -430 -336 -525 -408 -49 -38 -91 -72 -93 -76 -1
-4 21 -5 50 -3 38 4 63 13 88 32 19 15 154 119 300 231 146 112 270 207 275
212 6 6 1 16 -15 28 -14 11 -27 20 -30 20 -3 0 -25 -16 -50 -36z"/>
<path d="M878 1832 l-267 -207 280 -3 c154 -1 405 -1 557 0 l276 3 -49 36
c-28 19 -157 113 -287 207 -131 95 -239 172 -240 172 -2 0 -123 -94 -270 -208z
m310 142 c30 -21 28 -36 -5 -32 -20 2 -29 9 -31 26 -4 26 5 28 36 6z m-48 -14
c0 -15 -7 -20 -25 -20 -27 0 -32 9 -13 28 18 18 38 14 38 -8z m-5 -65 c0 -28
-3 -30 -35 -30 -32 0 -35 3 -38 33 -3 33 -3 33 35 30 35 -3 38 -5 38 -33z m83
3 c-3 -29 -6 -33 -33 -33 -27 0 -30 4 -33 33 -3 31 -2 32 33 32 35 0 36 -1 33
-32z m80 -5 c26 -21 49 -38 51 -40 2 -1 -21 -30 -50 -64 l-54 -61 -5 93 c-5
93 -4 109 6 109 3 0 27 -17 52 -37z m-253 -65 c-1 -46 -6 -83 -11 -83 -5 0
-27 22 -48 49 l-39 50 39 33 c21 18 44 33 50 33 8 0 11 -27 9 -82z m95 -53 c0
-43 -4 -75 -10 -76 -67 -7 -65 -9 -68 74 l-3 77 41 0 40 0 0 -75z m80 1 c0
-41 -3 -77 -8 -79 -4 -3 -19 -3 -35 0 -27 5 -27 7 -27 79 l0 74 35 0 35 0 0
-74z m239 -7 c50 -38 91 -71 91 -72 0 -3 -300 3 -302 6 -4 4 106 137 113 137
4 0 48 -32 98 -71z m-469 2 c24 -32 42 -61 40 -65 -7 -11 -253 -11 -256 0 -3
10 145 124 161 123 6 0 30 -26 55 -58z m57 -108 c4 -10 -35 -13 -172 -12 -148
0 -174 3 -165 14 16 19 331 16 337 -2z m173 2 c0 -12 -16 -15 -80 -15 -64 0
-80 3 -80 15 0 12 16 15 80 15 64 0 80 -3 80 -15z m260 0 c0 -12 -20 -15 -119
-15 -109 0 -142 6 -124 24 3 3 60 6 125 6 98 0 118 -3 118 -15z m116 0 c17
-13 14 -14 -43 -15 -50 0 -63 3 -63 15 0 20 79 20 106 0z"/>
<path d="M2500 1965 c-10 -12 -8 -25 9 -69 29 -71 48 -96 72 -96 10 0 19 3 19
6 0 9 -79 174 -84 174 -2 0 -9 -7 -16 -15z"/>
<path d="M188 1495 c20 -15 22 -24 22 -120 0 -96 -2 -105 -22 -119 -21 -15
-17 -16 64 -16 100 0 132 11 149 51 9 24 9 33 -5 54 -9 14 -23 25 -31 25 -21
0 -19 13 5 28 27 16 26 63 -1 88 -17 15 -40 20 -113 22 -86 3 -90 3 -68 -13z
m150 -23 c29 -38 -5 -92 -58 -92 l-30 0 0 61 0 61 38 -7 c20 -3 43 -14 50 -23z
m0 -118 c50 -35 11 -110 -55 -102 -27 3 -28 6 -31 61 l-3 57 33 0 c19 0 44 -7
56 -16z"/>
<path d="M513 1499 c15 -9 17 -26 17 -125 0 -110 -1 -115 -22 -124 -16 -6 14
-9 94 -9 64 -1 119 2 121 7 3 4 8 23 12 42 l7 35 -18 -25 c-28 -41 -45 -50
-95 -50 -52 0 -59 9 -59 83 0 35 2 37 30 37 23 0 35 -7 50 -32 l20 -33 -1 70
c0 57 -2 65 -10 44 -10 -26 -33 -39 -71 -39 -15 0 -18 9 -18 44 0 71 5 78 59
70 29 -4 56 -16 74 -32 31 -29 34 -24 12 18 l-16 30 -102 0 c-74 -1 -97 -3
-84 -11z"/>
<path d="M823 1496 c14 -11 17 -30 17 -125 0 -106 -1 -112 -22 -121 -18 -7
-11 -9 32 -9 42 0 50 2 33 9 -20 8 -22 17 -25 109 -2 56 0 101 3 101 4 0 49
-49 100 -110 52 -60 96 -110 99 -110 3 0 5 19 5 42 1 166 5 208 19 208 8 0 18
5 21 10 4 6 -14 10 -47 10 -53 0 -53 -1 -30 -18 21 -16 23 -24 20 -97 l-3 -79
-83 97 c-78 90 -86 97 -120 97 -33 -1 -35 -2 -19 -14z"/>
<path d="M1353 1491 c-53 -50 -32 -110 47 -136 28 -9 55 -25 61 -36 37 -69
-73 -97 -118 -30 l-23 34 0 -39 c0 -31 4 -40 18 -41 9 -1 36 -3 59 -4 51 -4
89 15 102 51 17 50 -8 78 -101 114 -32 13 -38 20 -38 45 0 61 75 66 110 8 l20
-32 0 36 c0 21 -5 36 -12 38 -86 13 -104 12 -125 -8z"/>
<path d="M1643 1489 c-18 -11 -38 -37 -48 -61 -43 -109 41 -205 162 -184 21 4
48 7 61 7 19 1 22 6 22 43 l-1 41 -15 -27 c-35 -65 -121 -73 -169 -16 -24 29
-27 38 -23 92 4 52 9 63 38 89 28 25 39 28 72 24 41 -6 78 -31 78 -53 0 -7 5
-16 10 -19 6 -4 10 12 10 42 0 33 -3 43 -9 34 -8 -12 -14 -13 -36 -3 -41 19
-116 15 -152 -9z"/>
<path d="M1988 1488 c-62 -36 -83 -103 -54 -173 20 -47 69 -75 130 -75 43 0
53 4 87 39 36 35 39 43 39 93 0 41 -5 62 -21 82 -45 58 -117 71 -181 34z m122
-16 c73 -74 36 -222 -55 -222 -52 0 -85 46 -85 116 0 117 74 172 140 106z"/>
<path d="M2265 1495 c-2 -5 -6 -23 -9 -40 -6 -28 -6 -29 9 -10 30 41 37 45 70
45 l35 0 1 -52 c1 -29 2 -64 1 -78 -1 -98 -2 -101 -24 -110 -17 -6 -5 -9 47
-9 63 -1 67 1 45 12 -24 12 -25 15 -25 122 l0 110 42 3 c38 3 43 0 58 -28 20
-39 26 -35 19 11 l-6 34 -130 0 c-78 0 -132 -4 -133 -10z"/>
<path d="M2585 1495 c-10 -31 -15 -65 -10 -65 2 0 12 14 20 31 15 27 20 30 58
27 41 -3 42 -4 45 -43 2 -22 1 -73 -3 -113 -6 -62 -10 -75 -28 -82 -16 -6 -2
-9 48 -9 50 0 64 3 48 9 -19 8 -22 17 -25 97 -5 139 -4 143 42 143 34 0 42 -4
55 -31 20 -38 26 -34 19 12 l-6 34 -130 0 c-78 0 -132 -4 -133 -10z"/>
<path d="M668 1174 c-34 -18 -48 -43 -48 -86 0 -44 22 -74 64 -88 41 -13 75
-2 105 36 36 45 21 113 -30 140 -35 18 -57 17 -91 -2z m85 -22 c12 -10 17 -30
17 -63 0 -39 -5 -51 -26 -68 -30 -24 -63 -16 -81 20 -25 47 -9 114 29 128 24
9 33 7 61 -17z"/>
<path d="M1089 1167 c-28 -19 -35 -30 -37 -64 -4 -54 11 -81 55 -99 39 -17 68
-11 100 18 63 58 16 168 -72 168 -7 0 -27 -10 -46 -23z m86 -12 c34 -33 35
-96 1 -130 -43 -43 -96 -6 -96 68 0 38 34 87 60 87 6 0 22 -11 35 -25z"/>
<path d="M1520 1180 c-25 -4 -39 -8 -32 -8 15 -2 17 -162 2 -162 -5 0 -10 -3
-10 -7 0 -5 18 -8 40 -8 36 -1 38 0 24 16 -11 12 -14 35 -12 85 3 68 4 69 32
72 19 2 36 -4 52 -19 17 -16 24 -18 24 -8 -1 37 -42 50 -120 39z"/>
<path d="M1870 1178 c0 -5 5 -8 10 -8 6 0 10 -33 10 -80 0 -47 -4 -80 -10 -80
-5 0 -10 -3 -10 -8 0 -4 18 -7 40 -7 38 0 53 9 28 17 -14 5 -12 151 3 156 22
8 6 17 -31 17 -22 0 -40 -3 -40 -7z"/>
<path d="M2330 1181 c0 -2 7 -9 16 -15 11 -9 14 -25 12 -63 l-3 -52 -53 64
c-45 55 -58 65 -85 65 -28 0 -29 -1 -13 -13 15 -11 17 -22 11 -85 -4 -40 -12
-72 -16 -72 -5 0 -9 -4 -9 -9 0 -5 17 -9 37 -9 33 0 35 2 20 13 -13 9 -17 27
-17 80 l0 67 68 -80 67 -80 3 84 c2 63 7 86 17 91 26 9 16 18 -20 18 -19 0
-35 -2 -35 -4z"/>
<path d="M2692 1175 c-37 -16 -64 -68 -55 -106 14 -59 69 -86 136 -67 31 9 37
16 37 38 0 14 5 31 12 38 9 9 2 12 -32 12 -38 0 -42 -2 -26 -13 11 -8 17 -23
14 -38 -2 -20 -9 -25 -40 -27 -43 -4 -68 24 -68 74 0 46 9 63 41 79 34 18 78
5 86 -25 8 -30 23 -24 23 9 0 22 -5 30 -17 29 -10 0 -31 3 -48 6 -18 3 -43 0
-63 -9z"/>
<path d="M213 1173 c14 -4 17 -16 17 -80 0 -56 -4 -79 -15 -87 -12 -9 -6 -11
30 -11 36 0 42 2 30 11 -11 8 -15 31 -15 88 l0 77 28 -3 c23 -2 27 -8 27 -33
0 -20 -7 -33 -21 -40 l-22 -11 24 -27 c12 -15 27 -33 31 -41 10 -17 73 -32 73
-17 0 6 -6 11 -14 11 -7 0 -26 16 -40 35 l-27 34 21 21 c46 46 10 80 -81 79
-35 -1 -56 -3 -46 -6z"/>
<path d="M1576 1109 c-10 -12 -14 -24 -9 -28 5 -3 15 -15 21 -26 10 -17 11
-13 12 28 0 26 -1 47 -3 47 -1 0 -11 -10 -21 -21z"/>
<path d="M140 890 l0 -60 1375 0 1376 0 -3 60 -2 60 -1373 0 -1373 0 0 -60z
m70 -5 c0 -18 -5 -25 -19 -25 -13 0 -18 7 -18 25 0 18 5 25 18 25 14 0 19 -7
19 -25z m70 -5 c0 -20 -2 -22 -10 -10 -6 10 -10 11 -10 3 0 -7 -4 -13 -10 -13
-5 0 -10 11 -10 24 0 19 5 24 20 23 14 -1 20 -8 20 -27z m120 5 c0 -25 -19
-36 -21 -12 0 9 -2 9 -6 -1 -7 -17 -23 -5 -23 19 0 14 7 19 25 19 20 0 25 -5
25 -25z m74 9 c3 -9 4 -20 0 -25 -14 -23 -57 2 -47 27 7 19 39 18 47 -2z m46
1 c0 -8 5 -15 10 -15 6 0 10 -4 10 -10 0 -5 -9 -10 -20 -10 -15 0 -20 7 -20
25 0 14 5 25 10 25 6 0 10 -7 10 -15z m80 -10 c0 -18 -5 -25 -20 -25 -15 0
-20 7 -20 25 0 18 5 25 20 25 15 0 20 -7 20 -25z m66 3 c-2 -34 -36 -37 -36
-4 0 19 5 26 19 26 13 0 18 -7 17 -22z m150 0 c-2 -34 -36 -37 -36 -4 0 19 5
26 19 26 13 0 18 -7 17 -22z m58 0 c-3 -13 -8 -25 -10 -27 -6 -6 -11 1 -18 27
-6 18 -4 22 14 22 18 0 20 -4 14 -22z m74 -3 c1 -19 -3 -25 -18 -25 -15 0 -20
7 -20 25 0 17 5 25 18 25 12 0 18 -8 20 -25z m62 0 c0 -18 -5 -25 -20 -25 -15
0 -20 7 -20 25 0 18 5 25 20 25 15 0 20 -7 20 -25z m50 10 c0 -8 5 -15 10 -15
6 0 10 -4 10 -10 0 -5 -9 -10 -20 -10 -15 0 -20 7 -20 25 0 14 5 25 10 25 6 0
10 -7 10 -15z m126 -11 c1 -16 -5 -21 -22 -21 -19 0 -24 5 -24 24 0 20 4 24
23 21 14 -2 22 -10 23 -24z m77 12 c7 -19 -18 -40 -38 -32 -15 6 -20 28 -8 39
12 12 41 7 46 -7z m75 -8 c-2 -15 -10 -23 -23 -23 -13 0 -21 8 -23 23 -3 18 1
22 23 22 22 0 26 -4 23 -22z m72 19 c0 -7 -37 -47 -44 -47 -3 0 -6 11 -6 25 0
20 5 25 25 25 14 0 25 -2 25 -3z m58 -22 c1 -19 -3 -25 -18 -25 -15 0 -20 7
-20 25 0 17 5 25 18 25 12 0 18 -8 20 -25z m157 15 c-4 -6 -11 -8 -16 -5 -5 4
-9 1 -9 -4 0 -6 8 -11 17 -11 13 0 14 -3 6 -11 -16 -16 -43 -3 -43 21 0 15 7
20 26 20 14 0 23 -4 19 -10z m63 -15 c1 -19 -3 -25 -18 -25 -15 0 -20 7 -20
25 0 17 5 25 18 25 12 0 18 -8 20 -25z m70 3 c-2 -15 -11 -24 -25 -26 -19 -3
-23 1 -23 22 0 21 5 26 26 26 21 0 25 -4 22 -22z m73 -4 c6 -18 3 -21 -21 -21
-16 0 -28 3 -26 6 2 3 6 14 9 24 9 23 28 18 38 -9z m69 1 c0 -18 -5 -25 -20
-25 -15 0 -20 7 -20 25 0 18 5 25 20 25 15 0 20 -7 20 -25z m110 0 c0 -18 -5
-25 -20 -25 -15 0 -20 7 -20 25 0 18 5 25 20 25 15 0 20 -7 20 -25z m41 13 c0
-10 2 -10 6 0 8 21 23 13 23 -13 0 -25 -19 -36 -21 -12 0 10 -2 10 -6 0 -8
-22 -23 -14 -23 12 0 25 19 36 21 13z m100 -14 c6 -18 3 -21 -21 -21 -26 0
-27 2 -17 24 12 27 27 26 38 -3z m66 12 c-3 -7 -1 -18 5 -24 6 -6 1 -9 -16 -9
-21 0 -26 4 -26 23 0 18 6 24 21 24 14 0 19 -5 16 -14z m71 -11 c1 -19 -3 -25
-18 -25 -15 0 -20 7 -20 25 0 17 5 25 18 25 12 0 18 -8 20 -25z m62 0 c0 -18
-5 -25 -19 -25 -13 0 -18 7 -18 25 0 18 5 25 18 25 14 0 19 -7 19 -25z m160
15 c0 -5 -8 -11 -17 -11 -17 -1 -17 -2 0 -6 23 -6 22 -23 -2 -23 -23 0 -35 15
-27 35 6 17 46 21 46 5z m73 -4 c7 -19 -18 -40 -38 -32 -15 6 -20 28 -8 39 12
12 41 7 46 -7z m67 1 c0 -14 -20 -37 -32 -37 -4 0 -8 11 -8 25 0 18 5 25 20
25 11 0 20 -6 20 -13z m70 0 c0 -13 -35 -39 -43 -31 -3 3 -3 14 0 25 6 21 43
27 43 6z m60 -12 c0 -18 -5 -25 -20 -25 -15 0 -20 7 -20 25 0 18 5 25 20 25
15 0 20 -7 20 -25z m70 1 c0 -19 -5 -24 -20 -23 -14 1 -20 8 -20 24 0 16 6 23
20 23 15 0 20 -7 20 -24z"/>
</g>
</svg>
