<svg version="1.1" id="Layer_1" xmlns="http://www.w3.org/2000/svg" xmlns:xlink="http://www.w3.org/1999/xlink" x="0px" y="0px"
	 width="100%" viewBox="0 0 828 821" enable-background="new 0 0 828 821" xml:space="preserve">
<path fill="#FEFEFE" opacity="1.000000" stroke="none" 
	d="
M389.000000,822.000000 
	C260.833344,822.000000 133.166687,821.980896 5.500130,822.094299 
	C1.750700,822.097656 0.905301,821.249329 0.906718,817.500000 
	C1.009054,546.833435 1.009057,276.166779 0.906753,5.500179 
	C0.905336,1.751348 1.750350,0.905303 5.499890,0.906708 
	C278.499817,1.008988 551.499817,1.008979 824.499695,0.906779 
	C828.248291,0.905376 829.094727,1.750001 829.093323,5.499792 
	C828.990906,276.166382 828.990906,546.833008 829.093201,817.499573 
	C829.094604,821.247864 828.250671,822.097046 824.500305,822.094177 
	C679.500244,821.983154 534.500122,822.000000 389.000000,822.000000 
z"/>
<path fill="#030303" opacity="1.000000" stroke="none" 
	d="
M382.078217,248.005890 
	C425.368805,260.838745 468.255768,273.630035 511.171967,286.322662 
	C518.931274,288.617493 526.745178,286.766998 534.458496,285.729523 
	C571.581421,280.736359 608.685974,275.606964 645.793152,270.496948 
	C660.286743,268.501038 674.917786,267.462311 689.243591,264.281769 
	C689.988281,264.116455 690.801636,264.260468 691.660950,264.260468 
	C691.511597,266.538483 690.232300,267.872681 688.955688,269.150726 
	C680.012695,278.103790 671.036377,287.023438 662.084290,295.967407 
	C659.613586,298.435944 656.644104,299.620819 653.178345,299.923248 
	C630.293274,301.920013 607.413269,303.973877 584.531555,306.008820 
	C574.248230,306.923340 563.962341,307.810425 553.683899,308.776886 
	C551.923584,308.942413 549.522888,308.827911 549.006897,310.838074 
	C548.404785,313.183258 550.696411,314.169128 552.422729,315.130615 
	C584.693054,333.103790 616.967163,351.070068 649.255066,369.011688 
	C651.922302,370.493805 654.841980,371.017792 657.911987,371.051758 
	C670.738586,371.193695 683.571045,371.240326 696.386536,371.718811 
	C701.148560,371.896606 703.481140,369.926880 704.312012,365.131653 
	C715.963745,371.938690 727.259949,378.538055 738.698364,385.220490 
	C737.274414,386.806061 735.685425,386.073547 734.347351,386.074432 
	C666.194763,386.119080 598.042236,386.090088 529.889648,386.137787 
	C524.300415,386.141693 519.548523,384.339417 515.062683,381.121887 
	C461.359863,342.602905 407.602600,304.159760 353.896271,265.645721 
	C335.097351,252.164597 316.397797,238.544952 297.660156,224.978485 
	C297.030487,224.522614 296.480164,223.957153 296.247314,222.688705 
	C324.726410,231.102631 353.205536,239.516571 382.078217,248.005890 
z"/>
<path fill="#0A0A0A" opacity="1.000000" stroke="none" 
	d="
M39.292095,560.207886 
	C290.517395,559.819885 541.439331,559.833740 792.361267,559.719299 
	C796.643127,559.717346 798.071106,560.474548 797.824158,565.036377 
	C797.383484,573.176392 797.573914,581.361023 797.774597,589.520203 
	C797.852173,592.670837 797.148315,594.265869 793.688477,593.775024 
	C792.218201,593.566406 790.694336,593.734009 789.194824,593.734009 
	C540.938538,593.733704 292.682251,593.716675 44.426018,593.859741 
	C39.611938,593.862488 38.743496,592.416748 38.893444,588.084595 
	C39.210224,578.932068 38.989185,569.760864 39.292095,560.207886 
z"/>
<path fill="#0E0E0E" opacity="1.000000" stroke="none" 
	d="
M468.382446,375.287964 
	C467.831970,374.972351 467.665222,374.911713 467.248566,374.942688 
	C466.832397,375.147400 466.666107,375.260498 466.250549,375.203644 
	C465.835419,374.972168 465.669495,374.910645 465.252136,374.934387 
	C463.082428,376.464447 460.841980,375.972321 458.723358,375.975555 
	C435.931519,376.010315 413.131683,375.610504 390.349396,376.078613 
	C345.298431,377.004333 300.247772,376.388428 255.198044,376.633636 
	C250.704285,376.658112 246.264572,376.143555 241.413132,375.276062 
	C219.681244,374.946930 198.362625,374.867828 177.044006,374.861115 
	C174.364838,374.860291 171.764465,374.747101 169.276474,373.586151 
	C169.105759,371.849365 170.688446,371.473785 171.646881,370.725922 
	C219.027878,333.753845 266.884766,297.390503 313.718658,259.720703 
	C317.452606,256.717377 319.867920,258.184479 322.896942,260.385956 
	C361.806274,288.665192 400.752563,316.893494 439.693329,345.129425 
	C451.012390,353.336884 462.393951,361.460327 473.582397,369.841888 
	C474.574554,370.585114 480.009521,371.938110 474.273621,374.784485 
	C472.375244,376.258362 470.597595,376.145386 468.382446,375.287964 
z"/>
<path fill="#070707" opacity="1.000000" stroke="none" 
	d="
M223.879211,284.891235 
	C242.498398,270.286469 260.857208,255.926270 279.157745,241.492157 
	C286.817108,235.450989 296.143188,236.905380 301.559479,245.159790 
	C303.285553,247.790283 301.301697,249.129547 299.591522,250.458359 
	C290.650330,257.405792 281.640015,264.264832 272.731628,271.253876 
	C228.330536,306.088654 182.999817,339.726654 139.026917,375.110474 
	C134.542465,378.719025 129.853149,380.771912 123.963524,380.519775 
	C118.993622,380.307037 113.991501,380.935333 109.000420,381.081177 
	C107.242058,381.132568 104.734505,381.870728 104.028313,379.920654 
	C103.250366,377.772339 105.656044,376.493561 107.142326,375.340179 
	C116.875023,367.787781 126.736328,360.401093 136.468918,352.848572 
	C165.532471,330.295288 194.556076,307.690552 223.879211,284.891235 
z"/>
<path fill="#101010" opacity="1.000000" stroke="none" 
	d="
M62.020466,479.290405 
	C56.781342,479.293152 52.037708,479.293152 47.420734,479.293152 
	C47.236515,477.659698 47.541492,477.117401 48.330246,477.041107 
	C54.894772,476.406128 57.337273,472.425659 57.504292,466.236969 
	C57.935680,450.252594 58.286701,434.262939 57.453087,418.292389 
	C57.046844,410.509674 56.698864,410.527832 48.669949,406.779358 
	C48.820068,405.228943 49.997135,405.666260 50.904778,405.651428 
	C63.885258,405.439484 76.869232,405.211578 89.838783,405.937561 
	C94.210411,406.182281 98.315453,407.560791 101.926865,410.139587 
	C112.652725,417.798615 111.888763,432.105927 100.437035,438.528595 
	C99.315712,439.157532 97.780632,439.111023 97.074158,440.583069 
	C97.517105,440.764038 97.933510,440.957611 98.365189,441.107056 
	C109.648140,445.013306 114.624741,452.077911 113.218872,462.200836 
	C111.949112,471.343750 103.692978,478.412872 92.985031,478.866943 
	C82.840965,479.297119 72.673264,479.169769 62.020466,479.290405 
z"/>
<path fill="#121212" opacity="1.000000" stroke="none" 
	d="
M585.499573,476.570038 
	C562.644470,485.705566 539.403137,476.408386 532.551941,454.728394 
	C524.651917,429.729645 540.012451,407.261292 565.151917,405.011200 
	C585.319092,403.206116 599.747986,412.514008 605.454773,430.197906 
	C611.408081,448.645447 603.292114,467.753296 585.499573,476.570038 
z"/>
<path fill="#131313" opacity="1.000000" stroke="none" 
	d="
M275.121429,440.846802 
	C280.527222,447.124115 285.707275,453.128815 291.836945,460.234314 
	C291.521149,445.003052 292.292755,431.159058 291.337097,417.308563 
	C290.987427,412.240143 287.865173,409.698120 283.370422,408.248962 
	C282.198059,407.870941 280.592743,408.474487 279.528625,406.166534 
	C288.557251,406.166534 297.238159,406.166534 306.001373,406.166534 
	C305.901154,406.726562 305.897186,407.024414 305.838898,407.035461 
	C296.002869,408.896667 295.269470,416.137482 295.071228,424.266418 
	C294.661133,441.080719 294.524719,457.890808 294.591858,474.706940 
	C294.598053,476.255096 295.485535,478.474731 293.490540,479.145233 
	C291.727417,479.737793 290.597076,477.853729 289.528503,476.613464 
	C274.322815,458.964417 259.141113,441.294647 243.934494,423.646393 
	C242.117111,421.537262 240.187042,419.525238 238.265152,417.419922 
	C236.524994,418.974396 237.198013,420.725616 237.191849,422.253998 
	C237.144104,434.077911 237.038574,445.904694 237.243637,457.725525 
	C237.394806,466.439850 235.055573,476.778503 249.417816,477.849091 
	C245.105209,480.001984 241.349121,479.146149 237.707306,479.250671 
	C233.547974,479.370117 229.382584,479.290222 225.219925,479.273010 
	C224.265366,479.269073 223.033035,479.503418 222.947601,478.055573 
	C222.874969,476.824860 224.006485,477.050323 224.757919,476.917480 
	C230.713562,475.864807 232.740097,471.933716 233.200272,466.296783 
	C234.476379,450.665314 234.147110,435.015869 234.034363,419.370941 
	C233.977570,411.490997 232.549942,410.014771 224.592834,407.773193 
	C224.199295,407.662323 223.908081,407.188171 223.123520,406.482056 
	C227.386063,404.566162 231.518448,406.069641 235.404053,405.460510 
	C242.407593,404.362610 247.008957,407.227020 251.296326,412.797852 
	C258.697479,422.414703 266.981873,431.351868 275.121429,440.846802 
z"/>
<path fill="#121212" opacity="1.000000" stroke="none" 
	d="
M203.714920,458.895508 
	C205.671143,458.925079 205.315735,460.031128 205.077148,460.972137 
	C203.728882,466.289917 202.256454,471.578156 201.015533,476.920380 
	C200.515656,479.072357 199.278183,479.347778 197.404663,479.341919 
	C178.588287,479.283142 159.771683,479.297302 140.955246,479.250702 
	C139.876678,479.248047 138.166489,479.872925 137.874847,478.453796 
	C137.434723,476.312256 139.657974,476.942596 140.691162,476.633240 
	C144.850433,475.387665 146.971252,472.957886 147.248901,468.413361 
	C148.316223,450.943512 147.840347,433.473938 147.729462,415.998718 
	C147.689728,409.736633 143.787247,407.899384 138.359695,407.620880 
	C139.113571,405.056000 140.680496,405.523071 141.805756,405.520599 
	C158.450256,405.483795 175.095139,405.556519 191.739273,405.474274 
	C194.219604,405.462006 195.620056,406.036316 196.465591,408.590698 
	C197.715210,412.365753 199.562393,415.939087 200.960434,419.671265 
	C201.377670,420.785095 202.854645,422.268951 201.430038,423.266907 
	C199.887405,424.347595 199.332794,422.307831 198.415756,421.516846 
	C198.291138,421.409424 198.186066,421.273987 198.091370,421.138000 
	C189.554459,408.878387 177.052155,407.209778 163.526367,408.058136 
	C161.086060,408.211182 160.333145,409.319672 160.312363,411.457367 
	C160.228165,420.114532 160.169128,428.772186 160.021469,437.428284 
	C159.990097,439.268250 160.496872,439.994293 162.498779,440.175537 
	C173.849655,441.203156 179.068024,438.055267 182.961990,427.498535 
	C183.247757,426.723816 183.242401,425.708649 184.298828,425.702728 
	C185.640137,425.695190 185.773102,426.816986 185.772736,427.815002 
	C185.769318,437.306976 185.739746,446.798950 185.712952,456.290924 
	C185.710495,457.160339 185.526978,458.072906 184.550262,458.207520 
	C183.574951,458.341949 183.231613,457.551086 182.943130,456.683350 
	C182.370270,454.960175 181.740860,453.242950 180.969925,451.600677 
	C177.782898,444.811523 168.574951,440.790192 161.550873,442.932556 
	C159.999969,443.405579 159.984268,444.410187 159.996674,445.578888 
	C160.086899,454.066071 159.752213,462.556702 160.593079,471.036133 
	C160.925858,474.391907 162.829681,475.696838 165.755127,476.019714 
	C186.377136,478.295319 193.454742,475.322876 203.714920,458.895508 
z"/>
<path fill="#151515" opacity="1.000000" stroke="none" 
	d="
M416.308197,461.467834 
	C414.301636,472.061035 407.562897,478.266571 396.214081,479.681000 
	C388.233490,480.675629 380.071075,480.911011 372.761810,476.959534 
	C369.025543,474.939667 368.929016,479.349121 365.300507,479.344452 
	C365.300507,472.886230 365.279144,466.364624 365.339722,459.843811 
	C365.344727,459.303101 365.798553,458.424347 366.225433,458.293121 
	C367.573486,457.878662 367.749359,459.083221 368.133453,459.987457 
	C369.901794,464.150299 372.026062,468.138184 375.271393,471.327515 
	C381.097351,477.052856 388.039062,478.985901 395.915588,476.523682 
	C401.856476,474.666534 405.241760,470.025543 405.530640,463.899170 
	C405.805145,458.076691 403.375336,454.191193 397.241150,451.639343 
	C391.716339,449.341095 385.996674,447.515900 380.400574,445.383484 
	C369.886292,441.376953 364.526489,432.479370 366.153931,421.881012 
	C367.534119,412.892975 376.128815,405.718811 386.427734,404.928650 
	C393.153809,404.412567 399.765656,404.657410 405.832886,408.065643 
	C407.364288,408.925934 408.496887,409.222717 409.527100,407.434357 
	C410.003662,406.606964 410.692780,405.675323 411.896057,406.118896 
	C413.162598,406.585907 412.725891,407.794250 412.734161,408.697693 
	C412.776825,413.361786 412.791199,418.027710 412.688477,422.690216 
	C412.667175,423.658508 413.540741,425.290955 411.673401,425.476044 
	C410.557709,425.586639 410.095551,424.475311 409.723450,423.504822 
	C408.459656,420.208496 406.631226,417.223816 404.378967,414.531555 
	C400.022919,409.324463 394.607117,406.695557 387.648102,407.787445 
	C381.667969,408.725739 377.663391,412.110718 376.370850,417.559204 
	C375.024261,423.235535 377.102600,428.426910 382.308105,431.680634 
	C387.878326,435.162384 394.328705,436.512909 400.411957,438.737000 
	C405.038452,440.428558 409.329895,442.649811 412.410400,446.507751 
	C415.764130,450.707733 416.904449,455.704865 416.308197,461.467834 
z"/>
<path fill="#161616" opacity="1.000000" stroke="none" 
	d="
M464.882751,472.357971 
	C481.907043,481.182709 499.098053,474.508575 505.681946,456.903351 
	C506.047180,455.926636 505.543060,454.111877 507.206543,454.205444 
	C509.252075,454.320435 508.458038,456.194183 508.463379,457.330872 
	C508.489929,462.989258 508.425903,468.648956 508.310211,474.306458 
	C508.289093,475.337891 508.925385,476.856201 507.293732,477.217926 
	C506.224365,477.454987 505.478851,476.571594 504.954254,475.668549 
	C503.292480,472.807922 501.429443,473.332550 498.812653,474.699066 
	C483.807678,482.535126 461.164856,480.431152 449.307220,469.943787 
	C437.989471,459.933868 434.834381,447.052368 438.292206,432.758362 
	C441.790131,418.298401 451.125732,408.857147 465.642914,405.257080 
	C477.109802,402.413483 488.478027,403.236694 499.078308,408.858948 
	C502.013916,410.415924 503.893555,410.564209 505.557892,407.519531 
	C506.028290,406.658997 506.684021,405.745239 507.897400,406.170959 
	C508.908051,406.525543 508.678802,407.514557 508.680664,408.297241 
	C508.695801,414.622101 508.683350,420.947083 508.680267,427.272003 
	C508.679779,428.262543 508.819458,429.474030 507.535522,429.663086 
	C506.208588,429.858429 506.165955,428.626495 505.830505,427.686859 
	C503.485596,421.118469 499.878998,415.433075 493.981415,411.471008 
	C481.552612,403.121124 466.552612,405.938385 457.964691,418.193634 
	C445.899231,435.411438 449.004272,460.645660 464.882751,472.357971 
z"/>
<path fill="#121212" opacity="1.000000" stroke="none" 
	d="
M733.335632,477.350739 
	C742.133118,475.776398 743.864929,473.980042 743.950256,465.486206 
	C744.125977,447.997589 744.045410,430.505768 744.321533,413.019226 
	C744.375916,409.570709 743.249390,408.578979 740.107605,409.019775 
	C739.127380,409.157318 738.096558,409.154236 737.114441,409.023438 
	C726.013184,407.544800 719.101135,412.903717 714.723633,422.565247 
	C714.303528,423.492523 714.432434,425.031891 712.085266,425.157837 
	C711.936707,418.896027 713.733826,412.950439 714.721802,406.940247 
	C715.024719,405.097107 716.876526,405.846649 718.098328,405.970642 
	C737.209778,407.910492 756.366882,406.515656 775.500610,406.770508 
	C776.655579,406.785919 777.821289,406.579926 778.969849,406.399750 
	C786.166992,405.270660 786.224548,405.252899 787.489502,412.338684 
	C788.233826,416.508148 788.756104,420.717255 789.509827,425.795044 
	C786.183899,424.112976 785.630798,421.477814 784.596741,419.489075 
	C780.622681,411.846313 774.675232,408.539490 765.970032,408.921387 
	C756.479553,409.337708 756.428284,408.948669 756.412842,418.247711 
	C756.386475,434.072388 756.289795,449.898407 756.456116,465.721375 
	C756.547241,474.396210 756.837036,474.486908 765.281372,476.912079 
	C765.916626,477.094513 766.588379,477.245728 766.651001,478.121826 
	C766.540405,478.366241 766.433960,478.871033 766.289612,478.882111 
	C755.667419,479.696747 745.028870,479.145386 734.396973,479.224396 
	C733.395325,479.231842 732.936768,478.618561 733.335632,477.350739 
z"/>
<path fill="#0E0E0E" opacity="1.000000" stroke="none" 
	d="
M667.995361,449.999756 
	C667.996460,455.826843 667.956055,461.154388 668.008728,466.481049 
	C668.080017,473.688416 669.080750,474.933258 676.117737,476.811737 
	C676.897949,477.020020 677.798523,476.916199 678.574219,478.568726 
	C667.032959,478.568726 655.818298,478.568726 644.490601,478.568726 
	C644.672791,478.006287 644.706360,477.492737 644.873657,477.444672 
	C655.176880,474.486420 655.435120,474.398407 655.594116,463.484741 
	C655.839050,446.674347 655.709412,429.858459 655.961121,413.048248 
	C656.012268,409.632996 654.875061,408.559174 651.686646,409.006134 
	C650.543823,409.166382 649.342590,409.162292 648.197144,409.011536 
	C637.485779,407.601746 630.849976,412.824036 626.557373,422.077118 
	C626.031006,423.211731 626.030518,425.660797 623.940247,424.813965 
	C622.314697,424.155396 623.790100,422.434723 623.944824,421.245331 
	C624.480286,417.128723 625.371216,413.055023 625.818359,408.931488 
	C626.095886,406.371857 626.954224,405.648529 629.612793,405.919556 
	C649.034912,407.899689 668.515015,406.637268 687.972229,406.711578 
	C689.446777,406.717224 691.046082,406.577026 692.375916,406.009186 
	C696.793030,404.123047 698.416626,405.640930 698.751221,410.219818 
	C699.052429,414.342651 700.116943,418.408417 700.814392,422.504517 
	C700.973267,423.437622 701.391418,424.605469 700.040100,424.979248 
	C698.970703,425.275055 698.781921,424.168823 698.344910,423.524506 
	C698.252197,423.387817 698.177917,423.234802 698.117615,423.080505 
	C693.431396,411.091217 684.303223,407.539764 672.171448,408.899323 
	C669.068359,409.247040 667.909119,409.696777 667.958618,413.043274 
	C668.138428,425.192963 668.008484,437.347260 667.995361,449.999756 
z"/>
<path fill="#151515" opacity="1.000000" stroke="none" 
	d="
M99.619598,507.381378 
	C100.410866,515.387878 95.832115,519.347778 89.178391,522.273315 
	C97.071869,529.863220 99.526367,541.835632 111.057434,545.879272 
	C106.033623,547.089478 100.984619,546.596252 95.987038,546.507141 
	C93.961754,546.471008 93.177376,544.399414 92.152374,542.911743 
	C88.946587,538.258911 85.823265,533.545593 82.490974,528.985046 
	C80.831604,526.714111 78.874077,524.632568 76.210670,523.409668 
	C74.136681,522.457458 73.065407,522.909241 73.135963,525.372131 
	C73.226486,528.532471 73.212242,531.695801 73.257248,534.857605 
	C73.365005,542.427368 73.917381,543.222107 82.119476,546.153931 
	C72.801262,546.153931 64.885262,546.153931 56.969269,546.153931 
	C64.313797,544.529907 63.793564,538.916809 63.783966,533.528870 
	C63.767357,524.208496 63.715157,514.886292 63.878048,505.568390 
	C63.962574,500.733521 62.925583,496.995422 57.248669,496.674347 
	C57.396664,496.006958 57.456821,495.430847 57.534512,495.428467 
	C67.986893,495.109039 78.488350,494.248413 88.850700,496.079407 
	C94.694351,497.111908 98.754120,500.644196 99.619598,507.381378 
z"/>
<path fill="#1A1A1A" opacity="1.000000" stroke="none" 
	d="
M615.979736,508.560181 
	C615.984558,516.987366 615.987488,524.977478 615.999573,532.967590 
	C616.008362,538.760742 615.698914,544.751648 623.679016,546.232483 
	C617.523560,546.232483 611.368164,546.232483 605.212708,546.232483 
	C612.807617,544.171265 612.278320,538.053345 612.406128,532.289246 
	C612.586853,524.137634 612.819336,515.986450 612.907532,507.833710 
	C612.988342,500.361145 612.097534,499.068909 605.535645,496.183228 
	C612.584412,493.234100 621.006409,494.925293 625.631775,500.316254 
	C632.889465,508.775330 640.089417,517.283875 647.326050,525.760986 
	C648.670471,527.335876 650.072449,528.861450 651.986633,531.016235 
	C651.986633,521.072998 652.154541,512.026672 651.916077,502.991089 
	C651.796021,498.442749 647.534912,497.774567 644.339111,495.674255 
	C650.591919,495.674255 656.844666,495.674255 663.097412,495.674255 
	C655.910034,497.356445 655.969971,502.919647 655.902588,508.359711 
	C655.764526,519.506165 655.708496,530.653748 655.517395,541.799194 
	C655.490906,543.344849 656.430725,545.538513 654.578552,546.338745 
	C652.257629,547.341553 651.086975,545.128967 649.815186,543.643860 
	C639.431213,531.518188 629.063904,519.378174 618.646423,507.281342 
	C618.000000,506.530670 617.573303,504.883759 616.113770,505.725311 
	C615.734924,505.943787 616.008118,507.293152 615.979736,508.560181 
z"/>
<path fill="#161616" opacity="1.000000" stroke="none" 
	d="
M324.351227,545.504517 
	C313.075012,547.895691 303.006683,546.599548 295.172729,537.917542 
	C287.962555,529.926819 286.823792,516.954590 292.040863,507.608032 
	C297.329437,498.133423 309.156036,492.726532 320.591675,494.555206 
	C333.454132,496.612000 341.468903,504.797424 342.738129,517.173157 
	C344.096313,530.416321 337.682556,540.455811 324.351227,545.504517 
z"/>
<path fill="#161616" opacity="1.000000" stroke="none" 
	d="
M175.662537,536.280212 
	C167.129562,522.661560 170.219528,505.931183 182.357742,498.632477 
	C196.145996,490.341675 214.231171,494.155762 221.373886,506.860809 
	C228.128769,518.875977 224.758316,534.239014 213.666824,541.990417 
	C202.204895,550.000793 185.077744,547.549561 175.662537,536.280212 
z"/>
<path fill="#151515" opacity="1.000000" stroke="none" 
	d="
M424.463104,505.087036 
	C424.450989,507.740936 424.184174,509.944794 424.506378,512.058899 
	C424.861633,514.389954 422.452820,517.626892 425.874207,518.947815 
	C429.849121,520.482422 436.409424,517.819702 438.198944,514.510986 
	C438.278137,514.364502 438.328674,514.194824 438.434143,514.071533 
	C439.649414,512.651489 438.308838,508.999512 441.003967,509.465363 
	C443.841583,509.955750 442.036499,513.102234 442.155701,515.003113 
	C442.426086,519.315063 442.349335,523.658813 442.194397,527.981812 
	C442.141205,529.465881 443.365021,531.786011 441.166260,532.323303 
	C438.726715,532.919434 438.992706,530.255859 438.533295,528.890198 
	C436.818787,523.793396 433.144470,521.558838 428.040009,521.177795 
	C425.538177,520.990967 423.922943,521.451538 424.214478,524.672607 
	C424.603821,528.974060 424.688446,533.321899 424.597534,537.643311 
	C424.488861,542.813416 427.007782,545.252441 431.977081,546.112610 
	C424.070435,546.112610 416.163788,546.112610 408.257111,546.112610 
	C415.157532,544.057861 415.034576,538.591675 414.972656,533.013794 
	C414.874664,524.191223 414.886200,515.365845 414.993591,506.543304 
	C415.051727,501.770599 415.337463,497.040009 408.462372,496.565918 
	C410.146179,494.359955 411.936005,495.167572 413.443573,495.158295 
	C423.262878,495.097839 433.095337,495.447968 442.897186,495.036682 
	C447.434113,494.846283 450.212341,495.875488 451.113373,500.479889 
	C451.600952,502.971344 454.826752,506.313202 452.977081,507.479279 
	C449.798706,509.482941 448.573425,504.948364 446.929596,503.092896 
	C441.484619,496.946960 434.474152,496.434448 427.275726,497.279846 
	C422.896423,497.794159 425.653687,502.210297 424.463104,505.087036 
z"/>
<path fill="#0A0A0A" opacity="1.000000" stroke="none" 
	d="
M709.971008,301.931213 
	C712.864380,307.955872 715.713867,313.587433 718.331055,319.324951 
	C720.549316,324.188263 719.862732,325.088684 714.690552,325.437408 
	C709.125549,325.812561 705.237427,323.977509 702.815857,318.548645 
	C698.084900,307.942444 692.905334,297.536652 687.929504,287.039337 
	C685.971008,282.907379 690.289978,274.930603 694.828491,274.315125 
	C697.102295,274.006775 697.443115,275.981903 698.131714,277.393951 
	C702.057495,285.443878 705.933472,293.518066 709.971008,301.931213 
z"/>
<path fill="#F7F7F7" opacity="1.000000" stroke="none" 
	d="
M241.080734,375.383728 
	C242.155762,374.921265 243.311676,374.766418 244.467590,374.766510 
	C317.673279,374.771484 390.878967,374.789062 464.542694,374.912567 
	C464.169006,378.296509 461.481110,376.932404 459.617371,376.938629 
	C432.642456,377.028595 405.573914,375.575439 378.713501,377.331726 
	C337.339996,380.036987 296.000153,378.162170 254.658386,378.997009 
	C249.883392,379.093414 245.584381,377.160095 241.080734,375.383728 
z"/>
<path fill="#1A1A1A" opacity="1.000000" stroke="none" 
	d="
M523.267090,522.999268 
	C523.270630,517.168335 523.142395,511.832733 523.320068,506.507294 
	C523.486145,501.527405 523.062927,497.121765 516.898682,495.625854 
	C524.354980,495.625854 531.811279,495.625854 539.267578,495.625854 
	C533.358398,497.305054 532.832275,501.613251 532.911560,506.600983 
	C533.067749,516.427673 533.108459,526.263306 532.856750,536.086548 
	C532.731506,540.975769 533.545410,544.731445 539.186157,546.109619 
	C531.809692,546.109619 524.433228,546.109619 517.056824,546.109619 
	C525.531799,543.673279 522.662170,536.605103 523.186829,530.991516 
	C523.418518,528.513123 523.253662,525.997681 523.267090,522.999268 
z"/>
<path fill="#121212" opacity="1.000000" stroke="none" 
	d="
M747.646729,498.825012 
	C738.725708,507.678223 736.278015,517.917908 739.242981,529.605530 
	C740.585266,534.896545 743.197998,539.403137 748.093689,542.295715 
	C749.125122,542.905090 750.935730,543.332214 750.029724,545.120300 
	C749.220032,546.718140 747.709656,545.852356 746.515869,545.544617 
	C740.943665,544.107605 735.944519,541.708130 732.363770,536.511902 
	C733.116577,535.086609 733.381470,534.269653 731.226990,534.195557 
	C722.961853,519.552551 729.340637,502.278259 745.350342,496.081604 
	C746.711182,496.530029 747.217651,497.365082 747.646729,498.825012 
z"/>
<path fill="#121212" opacity="1.000000" stroke="none" 
	d="
M767.698486,532.047119 
	C767.853394,526.658569 765.846130,523.349365 760.716614,522.198975 
	C761.123840,522.071106 761.530640,521.833069 761.938232,521.831665 
	C768.573120,521.808472 775.208069,521.815247 782.292358,522.121521 
	C774.878418,524.612732 777.262146,530.596008 777.356934,535.356384 
	C777.442749,539.665344 776.196045,541.909729 772.067505,543.455627 
	C765.885498,545.770386 759.643860,546.893677 753.109680,546.530396 
	C751.931519,546.464905 749.911377,546.702026 750.305115,544.735962 
	C750.629639,543.115662 752.193542,544.182129 753.230652,544.359497 
	C762.656921,545.971741 767.233276,542.225281 767.698486,532.047119 
z"/>
<path fill="#161616" opacity="1.000000" stroke="none" 
	d="
M748.087646,499.232178 
	C746.798279,498.831543 746.177185,498.094971 745.837585,496.562500 
	C754.095459,493.114105 762.313416,494.098938 770.493774,496.879578 
	C771.660889,497.276367 772.885559,498.669220 774.143250,497.554230 
	C777.997864,494.136780 777.917480,496.955444 777.912903,499.813324 
	C777.907593,503.132904 777.930786,506.452606 777.909485,509.772034 
	C777.903503,510.712891 778.182800,511.920135 776.781433,512.122131 
	C775.644104,512.286194 774.986938,511.622833 774.628418,510.520386 
	C773.803162,507.982727 772.596130,505.651550 770.927124,503.531769 
	C765.165588,496.213837 757.450867,494.683594 748.087646,499.232178 
z"/>
<path fill="#F7F7F7" opacity="1.000000" stroke="none" 
	d="
M421.000000,379.000000 
	C406.374298,379.000000 392.248596,379.000000 378.122925,379.000000 
	C378.123566,378.762512 378.124207,378.525024 378.124847,378.287537 
	C406.307434,378.287537 434.489990,378.287537 462.672577,378.287537 
	C462.676758,378.525024 462.680939,378.762512 462.685120,379.000000 
	C448.956757,379.000000 435.228363,379.000000 421.000000,379.000000 
z"/>
<path fill="#1A1A1A" opacity="1.000000" stroke="none" 
	d="
M677.053589,328.626160 
	C678.564941,325.735291 681.666138,326.247253 682.145630,327.643646 
	C682.958374,330.010468 683.796448,333.427887 681.523438,335.455994 
	C680.449524,336.414215 677.126709,337.339569 677.045410,333.488922 
	C677.014099,332.006836 677.044922,330.523438 677.053589,328.626160 
z"/>
<path fill="#151515" opacity="1.000000" stroke="none" 
	d="
M670.495728,327.087769 
	C672.302124,327.349152 674.588257,325.835907 674.958557,328.282410 
	C675.292114,330.486298 675.236145,332.904419 674.648438,335.033844 
	C674.299438,336.298553 672.304565,335.690186 671.053406,335.682068 
	C669.711426,335.673401 669.657776,334.498810 669.669678,333.521057 
	C669.695129,331.417419 669.135803,329.269226 670.495728,327.087769 
z"/>
<path fill="#1A1A1A" opacity="1.000000" stroke="none" 
	d="
M677.118042,319.329742 
	C678.468201,316.583313 680.660339,317.405670 682.103821,318.242981 
	C683.305725,318.940155 682.998840,321.021790 682.453430,322.320129 
	C681.701355,324.110199 679.867798,323.300781 678.548523,323.189697 
	C676.150635,322.987732 677.531433,320.919922 677.118042,319.329742 
z"/>
<path fill="#0A0A0A" opacity="1.000000" stroke="none" 
	d="
M669.700867,318.968872 
	C671.607483,317.497009 673.677673,316.626343 674.965271,319.008331 
	C675.447266,319.900024 675.638123,321.646179 674.631836,322.676971 
	C673.626404,323.706848 672.149719,323.392944 670.949829,323.113953 
	C668.820557,322.618896 670.018921,320.719910 669.700867,318.968872 
z"/>
<path fill="#F7F7F7" opacity="1.000000" stroke="none" 
	d="
M468.075256,375.399109 
	C469.716248,374.958008 471.433807,374.882996 473.575012,374.888031 
	C472.440460,378.099731 470.396332,377.667542 468.075256,375.399109 
z"/>
<path fill="#161616" opacity="1.000000" stroke="none" 
	d="
M730.936218,534.266785 
	C732.140747,534.869202 733.089172,531.350586 734.328491,533.816223 
	C735.043030,535.237732 734.333984,535.872253 732.611694,536.117004 
	C731.807739,535.618469 731.357361,535.075439 730.936218,534.266785 
z"/>
<path fill="#F7F7F7" opacity="1.000000" stroke="none" 
	d="
M466.088623,375.199280 
	C466.167603,374.972015 466.333862,374.910370 466.749390,374.941528 
	C466.724426,375.144501 466.450195,375.254730 466.088623,375.199280 
z"/>
<path fill="#D8D8D8" opacity="1.000000" stroke="none" 
	d="
M767.375244,583.203186 
	C758.169556,583.183411 758.374695,583.178833 758.191650,574.964661 
	C758.110901,571.343323 759.310852,570.207397 762.691162,570.740112 
	C763.662170,570.893250 764.680420,570.724792 765.675842,570.751099 
	C766.765625,570.779846 768.340820,570.291016 768.397278,572.000793 
	C768.463379,574.003845 766.730408,573.553101 765.462036,573.669189 
	C764.370056,573.769226 763.129639,573.183655 762.200500,574.281860 
	C762.307983,574.568481 762.328369,574.956055 762.521484,575.084900 
	C764.092590,576.133423 767.421997,574.115356 767.531982,576.727173 
	C767.675354,580.129578 763.324829,576.817627 762.073792,579.459534 
	C763.200867,581.110291 764.981689,580.068848 766.416809,580.307129 
	C768.322571,580.623535 769.335388,581.250122 767.375244,583.203186 
z"/>
<path fill="#DFDFDF" opacity="1.000000" stroke="none" 
	d="
M700.464233,579.242798 
	C699.504089,574.877502 700.837830,571.859863 704.895752,570.818115 
	C708.372803,569.925476 711.665588,570.612854 713.135071,574.453186 
	C714.424744,577.823608 713.594543,580.863403 710.285339,582.525879 
	C706.328430,584.513977 702.871826,583.786682 700.464233,579.242798 
z"/>
<path fill="#DFDFDF" opacity="1.000000" stroke="none" 
	d="
M368.814758,572.252197 
	C371.614380,576.040161 371.553345,579.468079 368.017151,582.131592 
	C365.199493,584.253845 361.990143,583.973450 359.261780,581.728394 
	C356.975098,579.846802 356.416840,577.294922 357.606140,574.533508 
	C358.977325,571.349548 361.601532,570.176025 364.879913,570.587646 
	C366.140778,570.745911 367.325836,571.507629 368.814758,572.252197 
z"/>
<path fill="#ECECEC" opacity="1.000000" stroke="none" 
	d="
M100.666191,571.010559 
	C104.645287,570.439514 104.981918,574.403381 107.265991,575.768921 
	C108.430275,574.613831 107.723297,573.427063 107.868843,572.376221 
	C108.002991,571.407654 108.368179,570.881165 109.371956,570.840698 
	C110.490974,570.795654 111.404686,571.095581 111.418846,572.383362 
	C111.453461,575.530701 111.812622,578.751282 111.269028,581.804932 
	C110.799606,584.441956 108.781059,583.337585 107.561867,582.151184 
	C106.296715,580.920105 105.335747,579.376404 104.233002,577.958191 
	C103.768333,578.351624 103.403030,578.505432 103.334572,578.744263 
	C102.899643,580.262024 104.549934,582.981323 101.775742,583.078064 
	C98.440384,583.194336 99.981750,580.149048 99.929832,578.541382 
	C99.851006,576.100403 99.359406,573.578735 100.666191,571.010559 
z"/>
<path fill="#DFDFDF" opacity="1.000000" stroke="none" 
	d="
M570.528687,574.783508 
	C571.074280,573.002014 569.916870,570.689514 572.782349,570.848206 
	C575.188232,570.981506 574.326050,573.018250 574.401978,574.305603 
	C574.538574,576.622070 574.404602,578.954285 574.389709,581.279968 
	C574.382568,582.390381 574.091919,583.229736 572.744690,583.218506 
	C571.590027,583.208862 570.796753,582.788818 570.847168,581.515930 
	C570.911194,579.896729 570.856201,578.500366 568.613892,578.606384 
	C566.423645,578.709961 567.037170,580.332458 566.983459,581.514648 
	C566.925415,582.791748 566.319824,583.260559 565.133728,583.238037 
	C563.909119,583.214844 563.342590,582.583557 563.344421,581.386475 
	C563.348755,578.562134 563.363708,575.737793 563.348022,572.913574 
	C563.341919,571.809631 563.616272,570.932312 564.876892,570.793457 
	C566.326294,570.633850 567.121765,571.298096 566.975464,572.777954 
	C566.704285,575.521362 568.057922,575.906006 570.528687,574.783508 
z"/>
<path fill="#DFDFDF" opacity="1.000000" stroke="none" 
	d="
M68.339539,570.997314 
	C70.394646,570.588867 71.287308,571.215759 71.133118,572.976318 
	C70.997475,574.525024 71.387405,575.591125 73.244957,575.500244 
	C74.860970,575.421143 75.061531,574.403259 74.968620,573.112976 
	C74.873627,571.793884 75.227127,570.820618 76.810852,570.819092 
	C78.809708,570.817078 78.732307,572.252991 78.739723,573.599976 
	C78.753456,576.093323 78.722641,578.586853 78.729362,581.080322 
	C78.732285,582.165039 78.510994,583.118286 77.223618,583.207703 
	C75.922676,583.298035 74.918259,582.914734 74.987267,581.302795 
	C75.045761,579.936401 75.113235,578.601624 73.090187,578.599182 
	C71.117310,578.596741 71.033600,579.851440 71.112556,581.270996 
	C71.194794,582.749512 70.574066,583.436829 69.055656,583.233887 
	C67.762207,583.060913 67.551697,582.190063 67.592369,581.100708 
	C67.715591,577.800232 67.820953,574.499084 68.339539,570.997314 
z"/>
<path fill="#DFDFDF" opacity="1.000000" stroke="none" 
	d="
M348.173340,573.224121 
	C349.932037,576.799805 349.678314,579.846130 346.761993,582.057495 
	C344.163300,584.027954 341.063293,584.038513 338.342712,582.282776 
	C335.852356,580.675598 335.231323,578.021973 335.926361,575.214417 
	C337.163086,570.219177 342.637360,569.187622 348.173340,573.224121 
z"/>
<path fill="#DFDFDF" opacity="1.000000" stroke="none" 
	d="
M481.473511,570.883057 
	C486.052551,571.948242 487.594116,574.717896 486.670959,578.699463 
	C485.826080,582.343384 481.646698,584.697998 476.986359,583.035400 
	C472.172974,581.318237 475.275116,576.515137 475.109985,573.252747 
	C474.885498,568.817627 478.991180,571.643372 481.473511,570.883057 
z"/>
<path fill="#DFDFDF" opacity="1.000000" stroke="none" 
	d="
M321.038666,579.952393 
	C320.918518,581.868408 320.956268,583.410583 318.662750,583.238953 
	C316.945526,583.110413 317.094360,581.844604 317.075989,580.694763 
	C317.054688,579.362183 317.079468,578.028870 317.085449,576.695862 
	C317.112244,570.730896 318.957184,569.329956 324.789337,570.900269 
	C327.551788,571.643921 329.132477,573.960510 327.706543,576.116455 
	C325.975220,578.734253 326.757721,580.536682 328.055969,582.558105 
	C323.990784,585.159180 323.589081,580.263245 321.038666,579.952393 
z"/>
<path fill="#D8D8D8" opacity="1.000000" stroke="none" 
	d="
M549.414673,578.783325 
	C546.681580,577.405884 544.524231,575.611938 546.230164,572.561768 
	C547.761841,569.823303 550.676941,570.249390 553.333313,571.035522 
	C554.157227,571.279358 555.209412,572.382324 554.938232,572.556458 
	C551.314941,574.882446 554.517883,576.489075 555.294739,578.497498 
	C556.106750,580.596680 555.320801,582.403442 552.931091,583.117859 
	C550.215820,583.929688 547.510132,583.644775 545.754150,581.452576 
	C545.023193,580.539978 546.052002,578.916138 548.233765,579.448730 
	C548.828064,579.363770 549.151733,579.514465 549.421692,579.473389 
	C549.912415,579.398743 549.903992,579.143127 549.414673,578.783325 
z"/>
<path fill="#ECECEC" opacity="1.000000" stroke="none" 
	d="
M786.904907,572.783569 
	C787.486206,574.240356 788.025757,575.525269 787.135071,576.446045 
	C785.041504,578.610535 786.055237,580.563354 787.440002,582.568359 
	C783.692078,584.608826 782.966614,581.040344 781.366638,579.565491 
	C779.976074,579.674194 780.157532,580.617004 780.125671,581.396057 
	C780.079102,582.533997 779.722778,583.303467 778.386414,583.222961 
	C777.145386,583.148132 776.631897,582.428284 776.617493,581.292725 
	C776.581848,578.471802 776.572571,575.650391 776.571716,572.829224 
	C776.571289,571.404297 777.289124,570.682922 778.734863,570.816101 
	C781.453491,571.066772 784.456238,569.934509 786.904907,572.783569 
z"/>
<path fill="#D8D8D8" opacity="1.000000" stroke="none" 
	d="
M219.535034,578.606689 
	C217.084671,577.390808 214.868347,575.888306 216.363342,572.890930 
	C217.936829,569.736206 220.988342,570.144348 223.752655,571.144897 
	C225.894653,571.920166 225.548645,573.160522 223.591415,574.397827 
	C223.128738,575.006714 222.340195,573.782654 222.471207,575.111816 
	C225.113724,576.703918 227.128983,578.333740 225.345520,581.533813 
	C224.109222,583.752075 219.016769,584.307129 216.840454,582.349854 
	C215.027176,580.719055 215.824478,579.602966 218.360718,579.260254 
	C218.934509,579.101685 219.782883,579.907593 219.535034,578.606689 
z"/>
<path fill="#D8D8D8" opacity="1.000000" stroke="none" 
	d="
M629.666382,580.361694 
	C631.217224,580.395691 632.543579,581.027893 631.902954,581.991455 
	C630.229309,584.508484 627.440002,582.954529 625.141113,583.200562 
	C623.700745,583.354675 621.969849,583.489014 621.990540,581.160400 
	C622.000854,579.994812 621.985718,578.829041 621.984924,577.663330 
	C621.979797,570.162720 622.404907,569.790710 629.762024,570.758301 
	C630.713562,570.883484 631.917664,570.650879 632.001709,572.059082 
	C632.083862,573.434937 630.987183,573.448914 629.969299,573.626953 
	C628.623535,573.862244 626.995361,572.948303 625.931458,574.484375 
	C627.055481,576.792419 631.042908,573.870056 631.053467,576.898254 
	C631.064331,580.004272 627.046997,576.967651 625.912964,579.343628 
	C626.574219,580.976257 628.114685,580.044800 629.666382,580.361694 
z"/>
<path fill="#D8D8D8" opacity="1.000000" stroke="none" 
	d="
M402.056824,575.096802 
	C403.993011,576.186340 406.210083,576.705811 406.023987,579.622925 
	C405.915771,581.319275 405.166199,582.433350 403.608521,583.004395 
	C401.277466,583.858887 399.054901,583.426514 396.926514,582.313110 
	C396.030731,581.844482 395.919098,581.084045 396.371124,580.233154 
	C396.953918,579.135925 397.811462,579.000427 399.184357,579.679993 
	C399.842651,579.572083 400.176514,579.391235 400.377655,578.988159 
	C397.584106,577.517578 394.845306,576.088867 396.655762,572.582642 
	C398.190155,569.610962 401.214783,570.264099 403.706573,571.053284 
	C405.994232,571.777893 405.992004,573.196289 403.474915,574.400024 
	C402.731506,574.419067 402.394104,574.571960 402.056824,575.096802 
z"/>
<path fill="#DFDFDF" opacity="1.000000" stroke="none" 
	d="
M269.959534,580.847717 
	C269.953003,579.377075 269.940491,578.384949 269.940765,577.392883 
	C269.942780,570.050598 269.944305,570.043518 277.414825,570.786560 
	C278.462280,570.890747 280.009857,570.430542 279.908569,572.271606 
	C279.837952,573.555725 278.678131,573.589294 277.672577,573.654663 
	C276.414337,573.736389 275.157715,573.842712 273.803772,573.945740 
	C274.023743,574.558594 274.043243,574.915466 274.231567,575.089478 
	C275.623383,576.375122 279.000000,574.123230 278.999054,576.900146 
	C278.998016,579.960083 275.084473,576.996887 273.880524,579.064026 
	C273.894043,580.670715 275.065033,580.231201 275.986877,580.363220 
	C277.436676,580.570923 280.002319,579.536072 279.815674,581.983704 
	C279.641937,584.262207 277.057159,583.272949 275.684662,583.107483 
	C273.738800,582.872925 270.906433,584.850891 269.959534,580.847717 
z"/>
<path fill="#DFDFDF" opacity="1.000000" stroke="none" 
	d="
M645.171143,578.891907 
	C641.974976,577.710938 638.566467,576.767700 640.385010,572.703857 
	C641.753052,569.646667 644.765564,570.392090 647.370789,570.994629 
	C647.942810,571.126953 648.414673,571.692200 648.932617,572.058105 
	C645.581848,575.028442 650.173462,577.040344 649.849060,579.648132 
	C649.594971,581.690308 648.562561,582.914734 646.444763,583.271545 
	C644.031860,583.678101 640.407898,583.332031 640.309631,581.620911 
	C640.014893,576.490295 643.836548,581.531921 645.372986,580.155151 
	C645.495789,580.045105 645.741150,579.942688 645.737183,579.844666 
	C645.725769,579.565491 645.614929,579.290466 645.171143,578.891907 
z"/>
<path fill="#DFDFDF" opacity="1.000000" stroke="none" 
	d="
M260.197235,575.720093 
	C261.471893,577.097351 261.233978,577.909729 259.658539,578.334106 
	C258.362793,578.683167 256.657013,577.485474 255.667618,579.396729 
	C256.931183,581.069214 258.735138,580.074646 260.230530,580.376709 
	C261.703949,580.674316 262.619690,581.982605 261.460297,582.634216 
	C258.950134,584.045044 255.941147,583.367249 253.179443,583.044006 
	C250.913666,582.778931 252.165634,580.646851 251.824936,579.370361 
	C251.661179,578.756836 251.870209,578.049500 251.874954,577.384460 
	C251.927231,570.063049 251.950699,570.042908 259.359558,570.785706 
	C260.296631,570.879639 261.566711,570.514771 261.754608,571.875671 
	C262.002655,573.672546 260.527649,573.388855 259.415741,573.571167 
	C258.147888,573.778992 256.720764,573.202698 255.451492,574.436523 
	C256.602081,576.088318 258.434357,575.156677 260.197235,575.720093 
z"/>
<path fill="#DFDFDF" opacity="1.000000" stroke="none" 
	d="
M606.987183,579.634277 
	C606.656799,581.387329 607.192627,583.213318 604.860168,583.253906 
	C602.390015,583.296936 603.056396,581.416565 603.016113,580.063843 
	C602.957031,578.082458 602.944458,576.093445 603.053467,574.115479 
	C603.118042,572.944519 602.275513,571.297913 604.253540,570.857239 
	C606.744873,570.302124 606.696838,572.329285 607.084900,573.874451 
	C610.416443,571.070557 610.416443,571.070557 613.746765,571.097839 
	C610.999268,575.730103 610.999268,575.730103 614.204102,582.837769 
	C610.130859,585.040894 609.771973,579.925293 606.987183,579.634277 
z"/>
<path fill="#DFDFDF" opacity="1.000000" stroke="none" 
	d="
M461.436768,573.723389 
	C460.309387,574.402832 460.477783,574.934509 461.242432,575.198242 
	C461.850708,575.408203 462.553070,575.326477 463.193451,575.466614 
	C464.218292,575.690979 465.908722,575.090820 465.910767,576.810669 
	C465.913269,578.908508 464.092804,578.188599 462.888977,578.276123 
	C462.073914,578.335449 461.211731,578.170837 460.628235,579.102905 
	C461.195038,581.236694 463.034424,580.113525 464.275391,580.385925 
	C465.365479,580.625244 466.891235,580.207947 466.745850,581.973328 
	C466.603210,583.705688 465.043915,583.268616 464.000610,583.175232 
	C461.627930,582.962952 457.996094,584.574097 457.167267,582.187256 
	C456.083862,579.067200 456.701599,575.278687 456.962585,571.805908 
	C457.074249,570.319885 458.836304,570.706909 459.890106,570.805542 
	C462.147095,571.016724 464.605255,570.004089 466.610260,571.525208 
	C467.212830,571.982300 466.793732,573.250732 465.804718,573.422180 
	C464.507324,573.647156 463.156891,573.566406 461.436768,573.723389 
z"/>
<path fill="#DFDFDF" opacity="1.000000" stroke="none" 
	d="
M55.841751,575.639221 
	C59.213627,577.128906 60.196262,579.561707 57.887455,581.992981 
	C55.540691,584.464294 51.899517,584.114075 49.740963,581.962891 
	C47.361607,579.591614 50.754539,579.616028 52.407330,578.768921 
	C49.937675,577.131653 47.845650,575.270325 49.701580,572.378479 
	C51.344933,569.817810 54.087543,570.269653 56.459038,571.024719 
	C58.467922,571.664429 59.314491,572.967346 56.363045,574.251099 
	C55.409721,574.507019 55.253708,574.908997 55.841751,575.639221 
z"/>
<path fill="#DFDFDF" opacity="1.000000" stroke="none" 
	d="
M156.786026,574.088623 
	C156.788132,572.233215 156.706100,570.718750 158.673416,570.801025 
	C161.303238,570.911011 164.180527,569.889526 166.479370,571.394287 
	C167.619553,572.140625 166.640778,573.442505 165.170410,573.636658 
	C163.584854,573.846008 161.817001,573.014771 160.449173,574.434692 
	C161.608261,576.866516 165.900787,573.645691 165.879074,577.032288 
	C165.860947,579.856689 161.822754,576.919617 160.760559,579.279358 
	C160.904083,579.587891 160.951553,579.948486 161.148056,580.072021 
	C162.885300,581.163818 166.783920,579.143738 166.537811,581.696899 
	C166.234787,584.840515 162.460327,582.690247 160.272903,583.207336 
	C157.313950,583.906799 156.512039,582.237793 156.738083,579.571045 
	C156.878220,577.917603 156.760284,576.242310 156.786026,574.088623 
z"/>
<path fill="#DFDFDF" opacity="1.000000" stroke="none" 
	d="
M505.933960,579.243164 
	C506.171417,580.789368 508.080444,581.957458 506.389313,583.049255 
	C505.481079,583.635620 504.149231,583.488403 503.364105,582.280457 
	C501.509827,579.427856 499.628662,579.540894 497.718048,582.242249 
	C496.938751,583.344055 495.791016,583.675354 494.697144,582.991150 
	C493.472717,582.225220 494.500122,581.254761 494.838715,580.427979 
	C495.840363,577.982300 496.875610,575.549805 497.936462,573.129089 
	C498.444153,571.970642 498.652527,570.637695 500.503510,570.613037 
	C502.575684,570.585510 502.840088,572.074768 503.417145,573.405945 
	C504.205750,575.225220 504.991577,577.045654 505.933960,579.243164 
z"/>
<path fill="#DFDFDF" opacity="1.000000" stroke="none" 
	d="
M181.862640,575.636719 
	C184.922806,577.373962 185.212891,579.666260 183.618622,582.115051 
	C182.476059,583.869934 176.724442,583.697632 175.191940,582.143188 
	C174.658661,581.602234 174.456177,581.084961 174.841293,580.408691 
	C175.272247,579.651733 175.811691,578.999084 176.789413,579.424438 
	C177.993500,579.948364 179.137054,580.694824 180.863785,579.850952 
	C179.915070,578.505066 178.468399,578.364929 177.241989,577.902100 
	C175.191208,577.128113 174.487274,575.645691 174.874496,573.559753 
	C175.349609,571.000122 177.358047,570.442688 179.395111,570.652222 
	C181.134995,570.831177 184.120148,569.952332 183.275726,573.882690 
	C182.478333,574.437561 181.801849,574.608459 181.862640,575.636719 
z"/>
<path fill="#DFDFDF" opacity="1.000000" stroke="none" 
	d="
M692.361023,580.333740 
	C690.347351,584.882202 686.829163,584.071594 683.810791,582.224487 
	C680.521362,580.211487 680.173462,576.843628 682.016052,573.493225 
	C683.595764,570.620544 688.392029,569.512878 691.243408,571.246460 
	C691.873901,571.629761 692.903442,571.931152 692.496033,573.021179 
	C692.122192,574.021484 691.290466,574.885193 690.234192,574.422668 
	C688.253235,573.555115 686.447571,572.842102 685.226746,575.366333 
	C684.610596,576.640381 684.724854,577.975403 685.570251,579.136169 
	C687.255310,581.449829 689.094482,579.612915 690.898376,579.332764 
	C691.269165,579.275146 691.729675,579.795959 692.361023,580.333740 
z"/>
<path fill="#D8D8D8" opacity="1.000000" stroke="none" 
	d="
M448.096375,582.132812 
	C444.259338,584.361389 440.991394,583.980591 438.468445,580.800598 
	C436.505920,578.327026 436.661469,575.453247 438.564514,572.951904 
	C440.661743,570.195435 443.653656,570.079346 446.690338,570.946411 
	C447.639038,571.217285 449.251282,571.531494 448.701508,573.114136 
	C448.302338,574.263367 447.231354,574.900208 445.872070,574.268982 
	C444.229095,573.505981 442.679504,573.233521 441.573425,575.128845 
	C440.833893,576.396057 440.871185,577.634705 441.709015,578.860107 
	C442.883514,580.578064 444.257446,580.470520 446.017120,579.685303 
	C448.227173,578.699158 448.945923,579.763184 448.096375,582.132812 
z"/>
<path fill="#ECECEC" opacity="1.000000" stroke="none" 
	d="
M519.674805,570.860535 
	C525.423889,571.329712 526.456604,572.932800 524.494751,577.683655 
	C524.311707,578.126892 523.834351,578.480835 523.747620,578.925720 
	C523.453491,580.434387 525.805664,581.181030 524.946716,582.867737 
	C524.843567,583.070312 524.405884,583.147644 524.108704,583.199158 
	C521.299255,583.686646 520.924500,580.745850 519.256287,579.681030 
	C517.218628,579.991028 519.038269,584.342102 515.786438,583.053406 
	C513.493835,582.144836 514.979370,579.885376 514.671021,578.261536 
	C514.489868,577.307678 514.804199,576.261169 514.632080,575.303772 
	C513.943909,571.476135 515.641968,570.223877 519.674805,570.860535 
z"/>
<path fill="#DFDFDF" opacity="1.000000" stroke="none" 
	d="
M129.796402,575.510498 
	C132.644043,577.867737 132.318970,580.350403 130.065460,582.251160 
	C127.233467,584.639832 121.593925,583.471985 119.958527,580.337463 
	C118.183304,576.934998 118.722328,573.541321 122.076088,571.681519 
	C124.867531,570.133484 128.420959,568.739014 130.214478,573.601379 
	C128.660385,575.950867 123.421417,573.029358 124.859360,579.067627 
	C125.448814,575.872925 126.786697,574.458679 129.796402,575.510498 
z"/>
<path fill="#D8D8D8" opacity="1.000000" stroke="none" 
	d="
M383.717285,578.628418 
	C380.406830,578.875549 383.505524,584.243042 379.819458,583.110596 
	C376.307709,582.031677 378.474091,578.548706 378.295502,576.221863 
	C377.917999,571.302490 382.404755,568.731140 387.237732,570.753967 
	C387.956451,571.054749 388.270813,571.487854 388.268097,572.215149 
	C388.265076,573.024475 387.713104,573.434265 387.043243,573.516724 
	C385.374573,573.722229 383.692383,573.817932 381.991058,573.959778 
	C382.372192,575.992676 383.528839,575.601379 384.447510,575.737000 
	C385.625458,575.910828 387.577240,575.078552 387.590057,577.053711 
	C387.605377,579.408752 385.434998,578.338989 383.717285,578.628418 
z"/>
<path fill="#DFDFDF" opacity="1.000000" stroke="none" 
	d="
M750.239929,573.481079 
	C751.106628,577.110779 749.691101,578.898376 746.548584,579.582825 
	C745.402527,579.832397 743.738403,579.343933 743.875549,581.538269 
	C743.978088,583.179443 742.714111,583.349731 741.489563,583.185730 
	C740.179932,583.010376 740.163269,581.937988 740.161011,580.919128 
	C740.157776,579.429993 739.933289,577.900879 740.198669,576.461670 
	C740.550964,574.551147 738.739197,571.422668 741.691589,570.972229 
	C744.480347,570.546814 748.110413,569.410400 750.239929,573.481079 
z"/>
<path fill="#ECECEC" opacity="1.000000" stroke="none" 
	d="
M586.739380,581.037354 
	C585.974060,583.178894 584.535278,583.809631 583.125000,582.927002 
	C581.979675,582.210266 583.063110,580.849854 583.483521,579.841248 
	C584.441162,577.543823 585.458008,575.271240 586.436768,572.982544 
	C586.967407,571.741760 587.424316,570.586914 589.191833,570.639343 
	C590.756897,570.685791 591.045227,571.752075 591.498291,572.806396 
	C592.612366,575.398560 593.769409,577.973267 594.824890,580.588989 
	C595.161926,581.423950 595.927368,582.617615 594.616455,583.121582 
	C593.838623,583.420593 592.480164,583.494995 591.998291,582.353943 
	C590.929810,579.823914 589.086548,580.086304 586.739380,581.037354 
z"/>
<path fill="#DFDFDF" opacity="1.000000" stroke="none" 
	d="
M726.773682,570.736694 
	C729.988403,570.814636 732.072449,571.647705 732.259705,574.899963 
	C732.444885,578.117371 730.558472,579.269165 727.791138,579.659485 
	C726.854980,579.791443 725.694275,579.663147 725.758423,581.146179 
	C725.837097,582.963318 724.817078,583.489319 723.253357,583.199280 
	C721.606079,582.893677 722.030518,581.500061 722.001587,580.424072 
	C721.952881,578.610718 722.170776,576.773071 721.953369,574.984985 
	C721.532227,571.521301 722.868896,570.108093 726.773682,570.736694 
z"/>
<path fill="#D8D8D8" opacity="1.000000" stroke="none" 
	d="
M142.106293,570.878418 
	C143.607788,572.656494 143.163727,574.529053 143.040726,576.275635 
	C142.844864,579.057190 143.334412,580.780823 146.685394,580.253357 
	C147.823730,580.074219 149.136902,580.285339 148.983643,581.991333 
	C148.823959,583.768616 147.337616,583.471802 146.349213,583.262146 
	C144.036697,582.771790 139.991959,584.978943 139.749603,581.531921 
	C139.509247,578.113220 136.853577,573.538208 142.106293,570.878418 
z"/>
<path fill="#D8D8D8" opacity="1.000000" stroke="none" 
	d="
M291.890839,572.312988 
	C291.935028,573.927979 292.001404,575.085205 291.917877,576.231506 
	C291.732758,578.771912 291.849365,580.908997 295.409637,580.271301 
	C296.541962,580.068542 297.885559,580.214905 297.762939,581.916626 
	C297.666962,583.248901 296.541748,583.350342 295.555298,583.207153 
	C293.196167,582.864929 289.769745,584.634399 288.669495,582.385193 
	C287.124573,579.227051 287.757385,575.252625 288.450409,571.763489 
	C288.772125,570.143799 290.711212,570.314880 291.890839,572.312988 
z"/>
<path fill="#DFDFDF" opacity="1.000000" stroke="none" 
	d="
M242.363403,573.704224 
	C238.037903,574.437805 240.679489,577.456055 239.976379,579.279053 
	C239.463501,580.608765 241.090271,583.092224 238.330750,583.140503 
	C235.566742,583.188843 236.979019,580.700928 236.590973,579.331238 
	C235.986237,577.196777 238.227112,573.757874 233.642075,573.445618 
	C232.664551,573.378967 232.343643,571.475037 233.438507,571.209717 
	C236.643539,570.432922 240.017258,570.291138 243.187164,571.310303 
	C244.253143,571.652954 243.725677,572.973206 242.363403,573.704224 
z"/>
<path fill="#F9F9F9" opacity="1.000000" stroke="none" 
	d="
M90.104126,577.019958 
	C89.369308,579.330811 91.818321,582.964478 88.332443,582.878967 
	C85.489792,582.809265 87.608582,579.366516 86.993904,577.544678 
	C86.893723,577.247803 86.903732,576.866028 86.991966,576.560913 
	C87.531235,574.695923 85.585243,571.246948 88.246437,571.147644 
	C91.694168,571.018921 89.470978,574.659729 90.104126,577.019958 
z"/>
<path fill="#D8D8D8" opacity="1.000000" stroke="none" 
	d="
M203.565720,576.368408 
	C203.625702,578.308655 203.727676,579.904175 201.410172,579.732422 
	C200.327835,579.652283 198.827042,580.233398 198.502380,578.632385 
	C198.255325,577.414062 197.690567,575.596497 199.026993,574.994934 
	C200.465378,574.347595 202.539337,573.564880 203.565720,576.368408 
z"/>
<path fill="#414141" opacity="1.000000" stroke="none" 
	d="
M130.095093,575.370483 
	C128.856033,576.792297 126.622208,574.707581 125.757828,576.934448 
	C125.074509,578.694824 127.705795,578.400635 127.723656,579.849182 
	C125.992340,581.186279 124.516121,580.453613 123.415565,579.115295 
	C122.370712,577.844727 122.612350,576.198242 123.378723,574.872009 
	C124.903816,572.232666 127.242241,574.110657 129.604218,573.992065 
	C130.015030,574.337280 130.052017,574.711853 130.095093,575.370483 
z"/>
<path fill="#DFDFDF" opacity="1.000000" stroke="none" 
	d="
M424.439270,574.899841 
	C424.910309,576.679993 425.821198,578.556824 424.098480,579.587891 
	C423.281921,580.076721 421.765564,579.831360 420.747803,579.442871 
	C419.369965,578.917053 419.892700,577.428589 419.957397,576.373291 
	C420.157379,573.110413 422.707825,575.271729 424.439270,574.899841 
z"/>
<path fill="#D8D8D8" opacity="1.000000" stroke="none" 
	d="
M666.682495,574.619873 
	C670.123291,575.079468 668.865112,577.395508 668.599548,578.838318 
	C668.346313,580.214355 666.674072,579.624878 665.584473,579.719421 
	C663.910339,579.864685 663.821594,578.762085 663.749207,577.489502 
	C663.643250,575.628357 663.719788,574.081543 666.682495,574.619873 
z"/>
<path fill="#414141" opacity="1.000000" stroke="none" 
	d="
M56.083267,575.409668 
	C54.837868,575.478577 52.737007,575.975037 53.151482,573.846924 
	C53.397900,572.581665 54.707230,573.804382 55.782196,574.081238 
	C56.049053,574.515015 56.072590,574.770264 56.083267,575.409668 
z"/>
<path fill="#414141" opacity="1.000000" stroke="none" 
	d="
M182.144028,575.655151 
	C180.764130,575.825623 178.786514,575.795349 179.050934,574.319458 
	C179.419968,572.259644 181.094818,574.458618 182.598297,574.105774 
	C182.770355,574.564270 182.503891,574.991089 182.144028,575.655151 
z"/>
<path fill="#FAFAFA" opacity="1.000000" stroke="none" 
	d="
M371.000000,353.055298 
	C363.682129,353.055511 356.864136,353.034149 350.046448,353.069977 
	C348.170563,353.079834 346.078217,353.121643 345.166077,351.349365 
	C344.209473,349.490723 345.681763,347.908875 346.891571,346.516998 
	C355.826599,336.237213 364.827911,326.014160 373.676483,315.660614 
	C376.718842,312.100769 378.984833,314.585266 381.264587,316.317688 
	C391.318359,323.957825 401.299652,331.693359 411.304413,339.397949 
	C416.789307,343.621765 422.268707,347.852722 429.014618,353.055298 
	C408.839966,353.055298 390.169983,353.055298 371.000000,353.055298 
z"/>
<path fill="#FAFAFA" opacity="1.000000" stroke="none" 
	d="
M277.273315,336.757751 
	C280.023865,340.327454 282.681915,343.528107 285.052368,346.929138 
	C287.644684,350.648468 286.513611,352.998230 282.061188,353.021698 
	C260.777710,353.133850 239.493591,353.135895 218.209702,353.143890 
	C216.585922,353.144501 214.512177,353.273285 213.941086,351.424835 
	C213.377411,349.600311 215.123260,348.465149 216.419083,347.464355 
	C229.439346,337.409058 242.513916,327.423767 255.498642,317.322968 
	C258.538483,314.958252 260.750275,315.369934 263.008453,318.362366 
	C267.610535,324.460815 272.363373,330.445496 277.273315,336.757751 
z"/>
<path fill="#F7F7F7" opacity="1.000000" stroke="none" 
	d="
M342.099854,311.001160 
	C342.105957,305.016602 342.088806,299.531281 342.164795,294.047272 
	C342.186890,292.450562 341.774841,290.429626 343.616882,289.641418 
	C345.070251,289.019531 346.491577,290.054321 347.697571,290.961700 
	C355.262726,296.653778 362.802338,302.379883 370.380432,308.054657 
	C372.701172,309.792511 373.073151,311.601471 371.119263,313.890503 
	C363.358002,322.982880 355.651947,332.122375 347.891510,341.215454 
	C346.704865,342.605927 345.093353,344.207062 343.321747,343.471497 
	C341.694794,342.795990 342.111298,340.565430 342.108673,338.923431 
	C342.094086,329.782623 342.108002,320.641724 342.099854,311.001160 
z"/>
<path fill="#FBFBFB" opacity="1.000000" stroke="none" 
	d="
M315.003723,339.961975 
	C315.089569,353.608185 316.525757,353.111084 302.357239,353.064545 
	C293.497009,353.035431 293.546173,353.060730 293.595154,344.186615 
	C293.646637,334.868164 293.699310,325.547211 293.534973,316.231201 
	C293.455963,311.751526 295.231445,309.799103 299.762390,310.088470 
	C303.076691,310.300171 306.416779,310.164917 309.743927,310.104248 
	C313.461761,310.036469 315.136505,311.576233 315.040222,315.507111 
	C314.844757,323.489807 314.991577,331.480865 315.003723,339.961975 
z"/>
<path fill="#F8F8F8" opacity="1.000000" stroke="none" 
	d="
M336.058594,352.326477 
	C331.560089,353.483307 327.391693,353.007141 323.254425,352.964172 
	C320.523438,352.935791 319.064453,351.389984 319.073639,348.492462 
	C319.110016,337.018494 319.070282,325.544250 319.100006,314.070221 
	C319.102051,313.275604 319.172394,312.078125 319.665070,311.750214 
	C324.510315,308.525330 329.904236,310.160919 335.022278,310.560394 
	C338.248322,310.812134 337.884460,314.102417 337.893677,316.572571 
	C337.930939,326.549683 337.928741,336.526947 337.968872,346.504059 
	C337.977020,348.529327 337.947662,350.511627 336.058594,352.326477 
z"/>
<path fill="#F8F8F8" opacity="1.000000" stroke="none" 
	d="
M273.709290,327.273376 
	C270.685364,323.286316 267.911438,319.555389 265.083405,315.865875 
	C263.370636,313.631317 263.372772,311.668091 265.708221,309.867828 
	C272.023071,305.000122 278.310699,300.097137 284.631714,295.237518 
	C287.299744,293.186310 289.009430,293.745941 289.026917,297.248932 
	C289.099884,311.872162 289.089386,326.495880 289.071808,341.119385 
	C289.070648,342.068878 289.132812,343.299744 288.055420,343.727173 
	C286.940887,344.169342 286.183563,343.126862 285.619476,342.422455 
	C281.678650,337.501190 277.820862,332.513397 273.709290,327.273376 
z"/>
<path fill="#ECECEC" opacity="1.000000" stroke="none" 
	d="
M353.056824,357.673767 
	C369.327362,357.669556 385.107941,357.647217 400.888306,357.687561 
	C402.866486,357.692627 404.930237,357.737061 406.798065,358.290527 
	C408.798950,358.883423 409.205719,360.789948 409.161804,362.763611 
	C409.106354,365.255890 407.250458,364.601166 405.917053,364.604736 
	C385.818512,364.658447 365.719818,364.674744 345.621185,364.680420 
	C343.967194,364.680878 342.152924,364.831512 342.145081,362.297394 
	C342.138336,360.126343 342.516022,358.164429 345.104706,357.915680 
	C347.576965,357.678162 350.078247,357.742920 353.056824,357.673767 
z"/>
<path fill="#ECECEC" opacity="1.000000" stroke="none" 
	d="
M231.549606,364.738647 
	C228.361511,364.650055 228.952667,362.632141 229.215759,361.131683 
	C229.531967,359.328247 230.863968,358.226685 232.725342,358.143555 
	C235.380417,358.024963 238.042877,358.054749 240.702225,358.050934 
	C254.502274,358.031097 268.302338,358.019379 282.102386,358.009308 
	C283.432190,358.008331 284.763855,357.998779 286.091431,358.061066 
	C288.838440,358.189880 289.048004,360.157471 289.168884,362.272522 
	C289.317657,364.876099 287.567627,364.693146 285.860504,364.694977 
	C267.904907,364.714233 249.949310,364.741302 231.549606,364.738647 
z"/>
<path fill="#F7F7F7" opacity="1.000000" stroke="none" 
	d="
M298.459717,306.908997 
	C294.886658,306.719299 293.698700,304.847900 293.663269,301.953918 
	C293.647064,300.627625 293.584564,299.301819 293.574768,297.975555 
	C293.503998,288.390656 293.506592,288.390717 302.990204,288.597504 
	C303.487793,288.608368 303.985992,288.602966 304.483002,288.625153 
	C315.226868,289.104767 316.464539,290.595184 315.498383,301.507629 
	C315.184387,305.053467 313.603546,307.011414 309.863892,306.945770 
	C306.214996,306.881714 302.564331,306.920868 298.459717,306.908997 
z"/>
<path fill="#F7F7F7" opacity="1.000000" stroke="none" 
	d="
M332.648926,287.949951 
	C335.741486,287.835602 337.092285,289.258270 337.475922,291.726044 
	C338.065521,295.518921 338.029205,299.340088 337.632263,303.138977 
	C337.475494,304.639221 336.807129,306.240631 335.104706,306.514343 
	C330.492065,307.255890 325.161560,308.356720 321.373291,306.320587 
	C316.374146,303.633698 319.872833,297.573029 319.158752,293.049408 
	C318.779205,290.645081 320.038330,289.111755 322.774658,288.672974 
	C325.916382,288.169220 329.042572,287.941101 332.648926,287.949951 
z"/>
<path fill="#ECECEC" opacity="1.000000" stroke="none" 
	d="
M293.686096,360.208588 
	C295.015808,357.513519 297.207397,357.950867 299.117279,357.943207 
	C310.407959,357.897949 321.699219,357.974396 332.989838,357.920746 
	C335.576447,357.908447 337.643188,358.268402 337.761261,361.433136 
	C337.886993,364.803070 335.699707,364.876129 333.157532,364.860535 
	C321.367828,364.788269 309.575806,364.718475 297.788391,364.896515 
	C294.495789,364.946228 293.165863,363.865875 293.686096,360.208588 
z"/>
<path fill="#ECECEC" opacity="1.000000" stroke="none" 
	d="
M196.985168,364.834106 
	C195.519073,364.677307 194.989853,364.044861 195.870544,363.258942 
	C198.597504,360.825562 201.457458,358.282745 205.271439,358.101990 
	C210.550323,357.851837 215.853745,358.047882 221.143829,358.172668 
	C222.082642,358.194794 223.010239,358.793549 223.938568,359.138062 
	C225.587204,359.749939 226.148788,361.012665 226.017059,362.671051 
	C225.849014,364.786743 224.218719,364.814453 222.736145,364.820801 
	C214.285843,364.857056 205.835327,364.836182 196.985168,364.834106 
z"/>
<path fill="#ECECEC" opacity="1.000000" stroke="none" 
	d="
M435.858276,364.832458 
	C429.054688,364.798187 422.731293,364.793915 416.408020,364.769836 
	C414.728973,364.763428 412.926514,364.909698 412.981110,362.362885 
	C413.028656,360.144409 413.661896,358.201233 416.199280,358.142944 
	C424.444366,357.953613 432.903687,356.451141 440.430176,361.496643 
	C441.429565,362.166626 443.454590,362.112671 442.916626,363.955841 
	C442.515747,365.329346 440.931030,364.731049 439.829132,364.789032 
	C438.667633,364.850128 437.502197,364.836182 435.858276,364.832458 
z"/>
<path fill="#ECECEC" opacity="1.000000" stroke="none" 
	d="
M321.311096,284.059692 
	C318.839630,282.452393 317.966522,280.483612 318.195831,277.945160 
	C318.602631,273.441864 320.898987,272.128845 324.747528,274.494171 
	C327.402344,276.125824 329.865570,278.077942 332.356445,279.963470 
	C333.417816,280.766907 334.476379,281.848602 334.073303,283.283112 
	C333.595001,284.985260 331.831421,285.116455 330.449677,285.212433 
	C327.492706,285.417786 324.504700,285.430115 321.311096,284.059692 
z"/>
<path fill="#ECECEC" opacity="1.000000" stroke="none" 
	d="
M302.956390,284.111450 
	C303.398621,280.284241 306.324127,278.479767 308.882996,276.492767 
	C310.752014,275.041412 313.192139,272.855621 314.994202,276.487701 
	C316.505798,279.534424 316.776917,282.840820 312.986694,284.559235 
	C309.848816,285.981873 306.498901,285.787720 302.956390,284.111450 
z"/>
<path fill="#F8F8F8" opacity="1.000000" stroke="none" 
	d="
M84.358315,443.255432 
	C95.934418,445.727264 101.722519,453.077087 100.202950,462.878082 
	C99.168358,469.551056 93.933479,474.757233 86.973656,476.034851 
	C72.784515,478.639557 70.168488,476.487610 69.995193,462.002899 
	C69.931427,456.673523 70.026047,451.340576 69.864265,446.014832 
	C69.793015,443.669159 70.487801,442.697144 72.944283,442.860535 
	C76.595627,443.103333 80.263359,443.099823 84.358315,443.255432 
z"/>
<path fill="#F7F7F7" opacity="1.000000" stroke="none" 
	d="
M92.559372,413.466827 
	C101.077065,425.323608 95.220879,438.427124 81.097397,439.949585 
	C69.861092,441.160828 69.824318,441.160492 69.932137,429.860870 
	C69.989273,423.873352 70.230644,417.887848 70.324654,411.900391 
	C70.356323,409.883881 70.637009,408.295441 73.183578,408.194550 
	C80.077194,407.921570 86.904808,407.805664 92.559372,413.466827 
z"/>
<path fill="#FBFBFB" opacity="1.000000" stroke="none" 
	d="
M560.105103,475.221619 
	C552.522156,471.477020 548.478699,465.191254 546.440674,457.828247 
	C542.578796,443.875671 542.929260,430.054871 550.983887,417.487671 
	C559.542419,404.134308 576.815613,403.948730 586.123718,416.757874 
	C595.729126,429.976135 596.092041,453.321136 586.902161,466.830444 
	C580.334595,476.484955 571.294678,479.408081 560.105103,475.221619 
z"/>
<path fill="#F7F7F7" opacity="1.000000" stroke="none" 
	d="
M79.408615,497.107361 
	C85.400589,498.786865 89.348656,502.057556 89.827522,508.157715 
	C90.388321,515.301575 82.430611,521.977966 75.086014,520.980042 
	C73.133698,520.714844 73.098877,519.672119 73.122543,518.270020 
	C73.215195,512.780090 73.449257,507.286804 73.334595,501.800964 
	C73.246880,497.604614 75.095840,496.235260 79.408615,497.107361 
z"/>
<path fill="#F9F9F9" opacity="1.000000" stroke="none" 
	d="
M317.465576,496.564270 
	C325.401215,498.519348 328.959930,504.207794 330.939240,511.005157 
	C333.288513,519.073059 332.940948,527.172363 329.220428,534.821411 
	C326.491364,540.432068 322.580780,545.008240 315.642700,544.861145 
	C309.065643,544.721619 305.029083,540.581177 302.545502,534.973267 
	C297.801849,524.262085 298.132050,513.615540 304.226288,503.518127 
	C307.032684,498.868286 311.363953,496.168304 317.465576,496.564270 
z"/>
<path fill="#F9F9F9" opacity="1.000000" stroke="none" 
	d="
M182.364716,511.737244 
	C183.502518,507.991425 184.799286,504.766113 187.053101,502.025513 
	C193.132584,494.633118 202.369049,494.696533 208.283340,502.153717 
	C215.981705,511.860535 216.119904,529.401489 208.574310,539.081726 
	C202.126007,547.354187 191.569519,546.726135 185.799194,537.595215 
	C180.801208,529.686523 180.396912,521.044006 182.364716,511.737244 
z"/>
<path fill="#151515" opacity="1.000000" stroke="none" 
	d="
M706.129395,580.160400 
	C703.181519,578.345276 703.018127,576.138611 705.112244,574.244934 
	C706.804504,572.714722 708.816711,573.582825 709.585205,575.534851 
	C710.624939,578.175781 709.729919,580.098022 706.129395,580.160400 
z"/>
<path fill="#1A1A1A" opacity="1.000000" stroke="none" 
	d="
M367.046570,576.974854 
	C366.538116,579.438416 365.356781,580.654114 363.131805,580.117249 
	C361.694672,579.770508 360.940674,578.637634 360.929840,577.159607 
	C360.918121,575.564514 361.370758,574.094543 363.147644,573.716064 
	C365.400635,573.236267 366.495697,574.576782 367.046570,576.974854 
z"/>
<path fill="#1A1A1A" opacity="1.000000" stroke="none" 
	d="
M340.674591,579.666992 
	C338.675690,577.608643 338.942322,575.861694 340.626373,574.257446 
	C341.778717,573.159790 343.133118,573.394836 344.224884,574.270264 
	C345.431152,575.237549 346.063751,576.541748 345.337830,578.168762 
	C344.442749,580.174988 343.048065,580.861511 340.674591,579.666992 
z"/>
<path fill="#121212" opacity="1.000000" stroke="none" 
	d="
M478.658234,577.892700 
	C478.887878,576.116272 477.754547,574.206848 479.944733,573.746094 
	C481.404999,573.438904 482.453705,574.365051 482.921295,575.784607 
	C483.442139,577.365906 483.156219,578.881409 481.698700,579.696350 
	C480.379730,580.433716 478.722809,580.946655 478.658234,577.892700 
z"/>
<path fill="#1A1A1A" opacity="1.000000" stroke="none" 
	d="
M322.000031,573.650269 
	C323.556305,573.730225 324.415649,574.109741 324.091217,575.433777 
	C323.764252,576.767822 322.414429,576.720520 321.692474,576.367004 
	C320.366180,575.717590 320.519714,574.580017 322.000031,573.650269 
z"/>
<path fill="#0A0A0A" opacity="1.000000" stroke="none" 
	d="
M549.170410,578.798706 
	C550.211182,578.895935 551.855652,578.657776 551.658875,579.712830 
	C551.453125,580.816467 550.054321,580.247620 548.835205,579.771667 
	C548.673706,579.390869 548.814575,579.220825 549.170410,578.798706 
z"/>
<path fill="#414141" opacity="1.000000" stroke="none" 
	d="
M781.862061,573.421936 
	C783.450623,573.820618 784.623230,574.403076 783.574951,575.835571 
	C782.875122,576.791870 781.426392,577.253357 780.519897,576.295410 
	C779.374390,575.084961 779.716980,573.871399 781.862061,573.421936 
z"/>
<path fill="#0A0A0A" opacity="1.000000" stroke="none" 
	d="
M219.389664,578.604614 
	C220.411148,578.789368 222.039627,578.687988 221.757660,579.760376 
	C221.509155,580.705505 220.093002,580.246216 218.945892,579.594482 
	C218.865692,579.145020 219.014252,578.989502 219.389664,578.604614 
z"/>
<path fill="#1A1A1A" opacity="1.000000" stroke="none" 
	d="
M222.768738,575.191650 
	C221.591034,575.258667 219.949448,575.675842 220.212997,574.161316 
	C220.396957,573.104187 221.809814,573.990051 222.980392,574.275513 
	C223.183258,574.666626 223.080902,574.829834 222.768738,575.191650 
z"/>
<path fill="#414141" opacity="1.000000" stroke="none" 
	d="
M402.348022,575.192383 
	C401.120087,575.294189 399.807159,575.241821 400.197601,574.050049 
	C400.562500,572.936157 401.764160,573.786987 402.863464,574.163147 
	C402.974304,574.604004 402.825043,574.805664 402.348022,575.192383 
z"/>
<path fill="#0A0A0A" opacity="1.000000" stroke="none" 
	d="
M400.040009,578.989929 
	C400.897858,578.908936 402.061615,578.587158 401.831329,579.775024 
	C401.685028,580.529602 400.760132,580.163818 399.835938,579.948669 
	C399.631042,579.598206 399.740112,579.419128 400.040009,578.989929 
z"/>
<path fill="#0A0A0A" opacity="1.000000" stroke="none" 
	d="
M646.754822,574.448364 
	C646.193726,576.504639 645.262024,575.132080 644.344116,574.812134 
	C643.876038,574.649048 643.904236,574.458374 644.220459,574.109924 
	C644.975830,573.277466 645.682983,574.027954 646.754822,574.448364 
z"/>
<path fill="#0A0A0A" opacity="1.000000" stroke="none" 
	d="
M53.933884,580.174377 
	C53.258980,579.832275 52.594086,579.506653 53.260563,579.094421 
	C53.554501,578.912598 54.144508,579.002075 54.502106,579.173157 
	C55.278069,579.544434 54.563015,579.855957 53.933884,580.174377 
z"/>
<path fill="#414141" opacity="1.000000" stroke="none" 
	d="
M519.875977,573.375122 
	C521.703369,573.874695 522.662048,574.749512 521.461853,576.157898 
	C520.726135,577.021179 519.237000,577.195618 518.461426,576.182068 
	C517.554871,574.997131 517.750000,573.755249 519.875977,573.375122 
z"/>
<path fill="#414141" opacity="1.000000" stroke="none" 
	d="
M744.217285,573.689697 
	C745.877380,573.428345 747.097778,573.835510 747.019775,575.491333 
	C746.979187,576.352722 746.020996,576.786133 745.234009,576.747681 
	C743.168274,576.646912 743.769348,575.185059 744.217285,573.689697 
z"/>
<path fill="#414141" opacity="1.000000" stroke="none" 
	d="
M725.714600,575.856995 
	C725.614197,574.207153 725.780701,573.054871 727.536743,573.571228 
	C728.390503,573.822205 729.159729,574.391479 728.851013,575.331787 
	C728.332336,576.911255 727.247681,577.298035 725.714600,575.856995 
z"/>
</svg>